<?xml version="1.0" encoding="UTF-8"?>
<svg id="Layer_1" data-name="Layer 1" xmlns="http://www.w3.org/2000/svg" xmlns:xlink="http://www.w3.org/1999/xlink" viewBox="0 0 2992.07 1942.47">
  <defs>
    <style>
      .cls-1 {
        fill: url(#linear-gradient-2);
      }

      .cls-2 {
        fill: #f0f0f0;
      }

      .cls-3 {
        fill: url(#linear-gradient-51);
      }

      .cls-4, .cls-5, .cls-6 {
        fill: #fff;
      }

      .cls-7 {
        fill: url(#linear-gradient-17);
      }

      .cls-5 {
        opacity: .63;
      }

      .cls-5, .cls-6 {
        isolation: isolate;
      }

      .cls-8 {
        fill: url(#linear-gradient-43);
      }

      .cls-9 {
        fill: url(#linear-gradient-15);
      }

      .cls-10 {
        fill: url(#linear-gradient-58);
      }

      .cls-11 {
        fill: url(#linear-gradient-69);
      }

      .cls-12 {
        fill: url(#linear-gradient-18);
      }

      .cls-13 {
        fill: url(#linear-gradient-56);
      }

      .cls-14 {
        fill: url(#linear-gradient-40);
      }

      .cls-15 {
        fill: url(#linear-gradient-52);
      }

      .cls-16 {
        fill: url(#linear-gradient-28);
      }

      .cls-17 {
        fill: url(#linear-gradient-14);
      }

      .cls-18 {
        fill: url(#linear-gradient-36);
      }

      .cls-19 {
        fill: url(#linear-gradient-20);
      }

      .cls-20 {
        fill: url(#linear-gradient-6);
      }

      .cls-21 {
        fill: url(#linear-gradient-53);
      }

      .cls-22 {
        fill: url(#linear-gradient-60);
      }

      .cls-23 {
        fill: url(#linear-gradient-35);
      }

      .cls-24 {
        fill: url(#linear-gradient-48);
      }

      .cls-25 {
        fill: url(#linear-gradient-32);
      }

      .cls-26 {
        fill: url(#linear-gradient-11);
      }

      .cls-27 {
        fill: url(#linear-gradient-50);
      }

      .cls-28 {
        fill: url(#linear-gradient-63);
      }

      .cls-29 {
        fill: url(#linear-gradient-67);
      }

      .cls-30 {
        opacity: .7;
      }

      .cls-6 {
        opacity: .72;
      }

      .cls-31 {
        fill: url(#linear-gradient-39);
      }

      .cls-32 {
        fill: url(#linear-gradient-10);
      }

      .cls-33 {
        fill: #91b3fa;
      }

      .cls-34 {
        fill: url(#linear-gradient-59);
      }

      .cls-35 {
        fill: url(#linear-gradient-49);
      }

      .cls-36 {
        fill: url(#linear-gradient-37);
      }

      .cls-37 {
        fill: url(#linear-gradient-16);
      }

      .cls-38 {
        fill: url(#linear-gradient-31);
      }

      .cls-39 {
        fill: #7d97f4;
      }

      .cls-40 {
        fill: url(#linear-gradient-61);
      }

      .cls-41 {
        fill: url(#linear-gradient-68);
      }

      .cls-42 {
        fill: url(#linear-gradient-62);
      }

      .cls-43 {
        fill: url(#linear-gradient-41);
      }

      .cls-44 {
        opacity: .19;
      }

      .cls-45 {
        fill: url(#linear-gradient-21);
      }

      .cls-46 {
        fill: url(#linear-gradient-25);
      }

      .cls-47 {
        fill: url(#linear-gradient-5);
      }

      .cls-48 {
        fill: url(#linear-gradient-64);
      }

      .cls-49 {
        fill: url(#linear-gradient-54);
      }

      .cls-50 {
        fill: url(#linear-gradient-45);
      }

      .cls-51 {
        fill: url(#linear-gradient-55);
      }

      .cls-52 {
        fill: url(#linear-gradient-34);
      }

      .cls-53 {
        fill: url(#linear-gradient-65);
      }

      .cls-54 {
        fill: url(#linear-gradient-70);
      }

      .cls-55 {
        fill: url(#linear-gradient-7);
      }

      .cls-56 {
        fill: url(#linear-gradient-66);
      }

      .cls-57 {
        opacity: .64;
      }

      .cls-58 {
        fill: url(#linear-gradient-24);
      }

      .cls-59 {
        fill: url(#linear-gradient-9);
      }

      .cls-60 {
        fill: url(#linear-gradient-22);
      }

      .cls-61 {
        fill: url(#linear-gradient-42);
      }

      .cls-62 {
        fill: url(#linear-gradient-3);
      }

      .cls-63 {
        fill: url(#linear-gradient);
      }

      .cls-64 {
        fill: url(#linear-gradient-27);
      }

      .cls-65 {
        fill: url(#linear-gradient-33);
      }

      .cls-66 {
        fill: url(#linear-gradient-38);
      }

      .cls-67 {
        fill: url(#linear-gradient-29);
      }

      .cls-68 {
        fill: url(#linear-gradient-30);
      }

      .cls-69 {
        fill: #bdd0fb;
      }

      .cls-70 {
        fill: url(#linear-gradient-23);
      }

      .cls-71 {
        fill: url(#linear-gradient-19);
      }

      .cls-72 {
        fill: url(#linear-gradient-71);
      }

      .cls-73 {
        fill: url(#linear-gradient-4);
      }

      .cls-74 {
        fill: url(#linear-gradient-8);
      }

      .cls-75 {
        fill: url(#linear-gradient-44);
      }

      .cls-76 {
        fill: url(#linear-gradient-57);
      }

      .cls-77 {
        fill: url(#linear-gradient-47);
      }

      .cls-78 {
        fill: url(#linear-gradient-46);
      }

      .cls-79 {
        fill: url(#linear-gradient-12);
      }

      .cls-80 {
        fill: url(#linear-gradient-13);
      }

      .cls-81 {
        fill: url(#linear-gradient-26);
      }
    </style>
    <linearGradient id="linear-gradient" x1="1075.05" y1="1266.98" x2="1079.46" y2="1266.98" gradientTransform="translate(-728889.48 521113.48) scale(678.01 -410.59)" gradientUnits="userSpaceOnUse">
      <stop offset="0" stop-color="#dae3fe"/>
      <stop offset="1" stop-color="#e9effd"/>
    </linearGradient>
    <linearGradient id="linear-gradient-2" x1="1076.83" y1="1264.92" x2="1077.81" y2="1269.75" gradientTransform="translate(-618942.63 446665.92) scale(575.92 -351.82)" gradientUnits="userSpaceOnUse">
      <stop offset="0" stop-color="#09005d"/>
      <stop offset="1" stop-color="#1a0f91"/>
    </linearGradient>
    <linearGradient id="linear-gradient-3" x1="1079.1" y1="1270.28" x2="1073.43" y2="1259.45" gradientTransform="translate(-593378.29 418684.39) scale(552.19 -329.73)" gradientUnits="userSpaceOnUse">
      <stop offset="0" stop-color="#4042e2"/>
      <stop offset="1" stop-color="#4f52ff"/>
    </linearGradient>
    <linearGradient id="linear-gradient-4" x1="1078.91" y1="1250.3" x2="1074.97" y2="1227.95" gradientTransform="translate(-689177 35872.7) scale(641.13 -27.46)" xlink:href="#linear-gradient-2"/>
    <linearGradient id="linear-gradient-5" x1="947.07" y1="1212.53" x2="940.33" y2="1205.96" gradientTransform="translate(-5169.32 8440.66) scale(6 -6)" gradientUnits="userSpaceOnUse">
      <stop offset="0" stop-color="#e1473d"/>
      <stop offset="1" stop-color="#e9605a"/>
    </linearGradient>
    <linearGradient id="linear-gradient-6" x1="959.77" y1="1195.5" x2="950.72" y2="1181.82" gradientTransform="translate(-4953.81 8187.24) scale(5.8 -5.8)" xlink:href="#linear-gradient-5"/>
    <linearGradient id="linear-gradient-7" x1="933.75" y1="1209.94" x2="927" y2="1203.38" gradientTransform="translate(-5169.25 8422.5) scale(6 -6)" xlink:href="#linear-gradient-5"/>
    <linearGradient id="linear-gradient-8" x1="947.1" y1="1186.96" x2="938.05" y2="1173.28" gradientTransform="translate(-4953.81 8169.07) scale(5.8 -5.8)" xlink:href="#linear-gradient-5"/>
    <linearGradient id="linear-gradient-9" x1="920.39" y1="1207.27" x2="913.65" y2="1200.71" gradientTransform="translate(-5169.32 8404.34) scale(6 -6)" xlink:href="#linear-gradient-5"/>
    <linearGradient id="linear-gradient-10" x1="934.35" y1="1178.48" x2="925.29" y2="1164.8" gradientTransform="translate(-4953.81 8150.91) scale(5.8 -5.8)" xlink:href="#linear-gradient-5"/>
    <linearGradient id="linear-gradient-11" x1="1081.48" y1="1266.57" x2="1084.44" y2="1270" gradientTransform="translate(54854.45 69106.67) rotate(-78.41) scale(52.19 -52.19)" xlink:href="#linear-gradient-5"/>
    <linearGradient id="linear-gradient-12" x1="1086.49" y1="1272.52" x2="1077.44" y2="1258.85" gradientTransform="translate(54575.53 65574.44) rotate(-79.75) scale(50.43 -50.43)" gradientUnits="userSpaceOnUse">
      <stop offset="0" stop-color="#fe7062"/>
      <stop offset="1" stop-color="#ff928e"/>
    </linearGradient>
    <linearGradient id="linear-gradient-13" x1="1076.74" y1="1283.04" x2="1063.98" y2="1270.42" gradientTransform="translate(-19141.87 41713.91) scale(19.04 -32.33)" xlink:href="#linear-gradient-12"/>
    <linearGradient id="linear-gradient-14" x1="1073.95" y1="1264.17" x2="1076.9" y2="1267.6" gradientTransform="translate(85276.85 95238.07) rotate(-82.01) scale(75.93 -75.93)" xlink:href="#linear-gradient-5"/>
    <linearGradient id="linear-gradient-15" x1="1078.6" y1="1270.2" x2="1069.54" y2="1256.52" gradientTransform="translate(77772.3 96118.86) rotate(-79.1) scale(73.42 -73.42)" xlink:href="#linear-gradient-12"/>
    <linearGradient id="linear-gradient-16" x1="1079.07" y1="1270.29" x2="1066.3" y2="1257.66" gradientTransform="translate(-28486.19 60501.12) scale(27.73 -47.06)" xlink:href="#linear-gradient-12"/>
    <linearGradient id="linear-gradient-17" x1="1081.82" y1="1275.15" x2="1084.78" y2="1278.58" gradientTransform="translate(73777.4 66413.61) rotate(-88.22) scale(58.86 -58.86)" xlink:href="#linear-gradient-5"/>
    <linearGradient id="linear-gradient-18" x1="1086.22" y1="1281.93" x2="1077.17" y2="1268.25" gradientTransform="translate(68383.44 67306.7) rotate(-85.63) scale(56.88 -56.88)" xlink:href="#linear-gradient-12"/>
    <linearGradient id="linear-gradient-19" x1="1049.67" y1="1283.43" x2="1036.91" y2="1270.8" gradientTransform="translate(-21935.56 46918.82) scale(21.48 -36.45)" xlink:href="#linear-gradient-12"/>
    <linearGradient id="linear-gradient-20" x1="1884.88" y1="1228.64" x2="1889.29" y2="1228.64" gradientTransform="translate(-11772.13 13077.19) scale(12 -9.55)" xlink:href="#linear-gradient-2"/>
    <linearGradient id="linear-gradient-21" x1="3070.71" y1="1212.52" x2="3075.12" y2="1212.52" gradientTransform="translate(-4088.11 9052.68) scale(4.87 -6.38)" gradientUnits="userSpaceOnUse">
      <stop offset="0" stop-color="#ff928e"/>
      <stop offset="1" stop-color="#feb3b1"/>
    </linearGradient>
    <linearGradient id="linear-gradient-22" x1="1596.33" y1="1227.1" x2="1600.74" y2="1227.1" gradientTransform="translate(-19099.63 12590.4) scale(18.83 -9.17)" xlink:href="#linear-gradient-2"/>
    <linearGradient id="linear-gradient-23" x1="3098.46" y1="1231.22" x2="3102.87" y2="1231.22" gradientTransform="translate(-4037.19 13007.27) scale(4.84 -9.5)" xlink:href="#linear-gradient-21"/>
    <linearGradient id="linear-gradient-24" x1="1370.36" y1="1264.87" x2="1374.77" y2="1264.87" gradientTransform="translate(-34391.35 113406.83) scale(33.01 -88.77)" xlink:href="#linear-gradient-2"/>
    <linearGradient id="linear-gradient-25" x1="984.35" y1="1268.97" x2="967.54" y2="1259.89" gradientTransform="translate(-6207.48 14423.9) scale(6.84 -10.67)" xlink:href="#linear-gradient-2"/>
    <linearGradient id="linear-gradient-26" x1="1020.88" y1="1271.57" x2="1025.29" y2="1271.57" gradientTransform="translate(-41809.51 23784.05) scale(39.92 -18.1)" xlink:href="#linear-gradient-5"/>
    <linearGradient id="linear-gradient-27" x1="1626.97" y1="1271.34" x2="1631.38" y2="1271.34" gradientTransform="translate(-18160.64 43249.35) scale(17.99 -33.48)" xlink:href="#linear-gradient-21"/>
    <linearGradient id="linear-gradient-28" x1="1059.34" y1="1278.23" x2="1061.9" y2="1274.28" gradientTransform="translate(-72241.23 74518.23) scale(68.17 -58.13)" xlink:href="#linear-gradient-12"/>
    <linearGradient id="linear-gradient-29" x1="1234.72" y1="1499.37" x2="1223.9" y2="1485.65" gradientTransform="translate(-23606.73 29539.62) scale(23.06 -22.64)" xlink:href="#linear-gradient-21"/>
    <linearGradient id="linear-gradient-30" x1="1182.24" y1="1527.08" x2="1173.27" y2="1509.58" gradientTransform="translate(-19362.3 16309.5) scale(19.13 -12.2)" xlink:href="#linear-gradient-21"/>
    <linearGradient id="linear-gradient-31" x1="1262.9" y1="1624.27" x2="1251.21" y2="1606.8" gradientTransform="translate(-14116.15 22982.46) scale(14.21 -17.48)" xlink:href="#linear-gradient-21"/>
    <linearGradient id="linear-gradient-32" x1="1021.46" y1="1269.99" x2="1016.09" y2="1264.28" gradientTransform="translate(-13527.41 22351.85) scale(13.67 -16.99)" xlink:href="#linear-gradient-21"/>
    <linearGradient id="linear-gradient-33" x1="1013.28" y1="1311.79" x2="1017.97" y2="1305.44" gradientTransform="translate(-19302.45 33899.44) scale(19.03 -26.11)" xlink:href="#linear-gradient-2"/>
    <linearGradient id="linear-gradient-34" x1="898.72" y1="1260.72" x2="910.64" y2="1271.92" gradientTransform="translate(-4130.71 7662.01) scale(4.94 -5.4)" xlink:href="#linear-gradient-21"/>
    <linearGradient id="linear-gradient-35" x1="1073.3" y1="1267.12" x2="1076.25" y2="1270.55" gradientTransform="translate(17517.92 201206.82) rotate(-45) scale(120.9 -120.9)" xlink:href="#linear-gradient-5"/>
    <linearGradient id="linear-gradient-36" x1="1077.95" y1="1273.27" x2="1068.9" y2="1259.59" gradientTransform="translate(16977.53 194536.66) rotate(-45) scale(116.88 -116.88)" xlink:href="#linear-gradient-12"/>
    <linearGradient id="linear-gradient-37" x1="1072.29" y1="1273.56" x2="1059.53" y2="1260.93" gradientTransform="translate(-46260.86 95724.29) scale(44.14 -74.91)" xlink:href="#linear-gradient-12"/>
    <linearGradient id="linear-gradient-38" x1="1090.49" y1="1186.64" x2="1088.69" y2="1181.7" gradientTransform="translate(-18059.22 17679.89) scale(18.16 -13.09)" xlink:href="#linear-gradient-2"/>
    <linearGradient id="linear-gradient-39" x1="840.94" y1="1179.42" x2="845.92" y2="1179.42" gradientTransform="translate(-5571.32 11665.75) scale(6.57 -8.35)" xlink:href="#linear-gradient-21"/>
    <linearGradient id="linear-gradient-40" x1="1086.36" y1="1256.71" x2="1087.54" y2="1251.82" gradientTransform="translate(-47511.11 62483) scale(45.52 -48.48)" xlink:href="#linear-gradient-2"/>
    <linearGradient id="linear-gradient-41" x1="1095.71" y1="1203.26" x2="1095.71" y2="1197.91" gradientTransform="translate(-20890.43 13455.41) scale(20.79 -9.75)" xlink:href="#linear-gradient-2"/>
    <linearGradient id="linear-gradient-42" x1="1095.35" y1="1139.81" x2="1093.37" y2="1116.64" gradientTransform="translate(-21501.46 8670.72) scale(21.36 -5.98)" xlink:href="#linear-gradient-3"/>
    <linearGradient id="linear-gradient-43" x1="872.48" y1="1171.18" x2="876.46" y2="1171.18" gradientTransform="translate(-6802.15 11096.21) scale(7.72 -7.9)" xlink:href="#linear-gradient-21"/>
    <linearGradient id="linear-gradient-44" x1="1086.34" y1="1259.14" x2="1086.24" y2="1257.95" gradientTransform="translate(-59266.84 77609.44) scale(56.45 -60.41)" xlink:href="#linear-gradient-2"/>
    <linearGradient id="linear-gradient-45" x1="1018.36" y1="1177.97" x2="1011.5" y2="1171.14" gradientTransform="translate(-28948.54 41327.32) scale(28.29 -31.82)" xlink:href="#linear-gradient-12"/>
    <linearGradient id="linear-gradient-46" x1="1017.75" y1="1236.5" x2="1022.13" y2="1236.5" gradientTransform="translate(-24830.78 21407.03) scale(24.44 -16.1)" xlink:href="#linear-gradient-21"/>
    <linearGradient id="linear-gradient-47" x1="1088.26" y1="1258.81" x2="1084.21" y2="1255.06" gradientTransform="translate(-49993.32 74295.32) scale(47.85 -57.84)" xlink:href="#linear-gradient-12"/>
    <linearGradient id="linear-gradient-48" x1="1111.58" y1="1242.98" x2="1112.88" y2="1236.53" gradientTransform="translate(-13968.09 19877.23) scale(14.4 -14.92)" xlink:href="#linear-gradient-21"/>
    <linearGradient id="linear-gradient-49" x1="1096.68" y1="1254.51" x2="1089.84" y2="1249.34" gradientTransform="translate(-28980.72 54224.21) scale(28.37 -42.01)" xlink:href="#linear-gradient-12"/>
    <linearGradient id="linear-gradient-50" x1="1091.68" y1="1236.42" x2="1090.97" y2="1231.21" gradientTransform="translate(-44877.09 18328.78) scale(43.11 -13.66)" xlink:href="#linear-gradient-21"/>
    <linearGradient id="linear-gradient-51" x1="1065.04" y1="1207.25" x2="1069.03" y2="1212.33" gradientTransform="translate(-20896.63 30124.87) scale(20.82 -23.01)" xlink:href="#linear-gradient-21"/>
    <linearGradient id="linear-gradient-52" x1="992.68" y1="1253.73" x2="998.31" y2="1253.73" gradientTransform="translate(-18776.95 30316.98) scale(18.86 -23.17)" xlink:href="#linear-gradient-2"/>
    <linearGradient id="linear-gradient-53" x1="1089.94" y1="1113.77" x2="1102.38" y2="1132.67" gradientTransform="translate(-5651.24 8816.53) scale(6.68 -6.19)" xlink:href="#linear-gradient-21"/>
    <linearGradient id="linear-gradient-54" x1="1044.4" y1="979.71" x2="1041.14" y2="968.96" gradientTransform="translate(-44541.51 5525.31) scale(42.76 -3.55)" xlink:href="#linear-gradient-2"/>
    <linearGradient id="linear-gradient-55" x1="1081.6" y1="1251.72" x2="1083" y2="1254.43" gradientTransform="translate(-58806.39 46074) scale(55.97 -35.57)" xlink:href="#linear-gradient-2"/>
    <linearGradient id="linear-gradient-56" x1="1144.4" y1="1262.66" x2="1148.81" y2="1262.66" gradientTransform="translate(-16471.4 80009.97) scale(16.9 -62.4)" xlink:href="#linear-gradient"/>
    <linearGradient id="linear-gradient-57" x1="1063.36" y1="1240" x2="1069" y2="1245.48" gradientTransform="translate(-79637.16 131662.93) scale(75.45 -103.14)" xlink:href="#linear-gradient-2"/>
    <linearGradient id="linear-gradient-58" x1="1106.07" y1="1254.3" x2="1097.13" y2="1258.81" gradientTransform="translate(-40026.56 53897.7) scale(38.64 -41.79)" xlink:href="#linear-gradient-21"/>
    <linearGradient id="linear-gradient-59" x1="1175.89" y1="1201.85" x2="1174.93" y2="1193.38" gradientTransform="translate(-8485.36 13098.18) scale(9.42 -9.47)" xlink:href="#linear-gradient-2"/>
    <linearGradient id="linear-gradient-60" x1="1123.53" y1="1219.86" x2="1128.1" y2="1232.17" gradientTransform="translate(-12511.5 73128.25) scale(13.12 -56.87)" xlink:href="#linear-gradient-21"/>
    <linearGradient id="linear-gradient-61" x1="1129.49" y1="1220.29" x2="1128.9" y2="1213.36" gradientTransform="translate(-14823.8 15786.15) scale(15.26 -11.59)" xlink:href="#linear-gradient-2"/>
    <linearGradient id="linear-gradient-62" x1="1105.01" y1="1242.65" x2="1107.06" y2="1255.41" gradientTransform="translate(-29904.98 70625.16) scale(29.29 -54.89)" xlink:href="#linear-gradient-21"/>
    <linearGradient id="linear-gradient-63" x1="1102.34" y1="1263.84" x2="1103.37" y2="1256.82" gradientTransform="translate(-29833.25 51109.01) scale(29.2 -39.56)" xlink:href="#linear-gradient-12"/>
    <linearGradient id="linear-gradient-64" x1="1097.23" y1="1254.72" x2="1092.28" y2="1250.58" gradientTransform="translate(-35434.89 68797.42) scale(34.41 -53.49)" xlink:href="#linear-gradient-5"/>
    <linearGradient id="linear-gradient-65" x1="1153.34" y1="1254.62" x2="1153.71" y2="1245.9" gradientTransform="translate(-9171.76 23478.22) scale(10.02 -17.78)" xlink:href="#linear-gradient-21"/>
    <linearGradient id="linear-gradient-66" x1="1051.87" y1="1256.65" x2="1056.28" y2="1256.65" gradientTransform="translate(-16618.97 50679.83) scale(16.94 -39.22)" xlink:href="#linear-gradient-21"/>
    <linearGradient id="linear-gradient-67" x1="1127.14" y1="1252.57" x2="1123.44" y2="1244.48" gradientTransform="translate(-14785.05 22190) scale(15.22 -16.77)" xlink:href="#linear-gradient-21"/>
    <linearGradient id="linear-gradient-68" x1="1009.5" y1="1139.45" x2="1036.34" y2="1166.35" gradientTransform="translate(-15465.72 27544.45) scale(15.86 -21)" xlink:href="#linear-gradient-2"/>
    <linearGradient id="linear-gradient-69" x1="1251.17" y1="1198" x2="1237.72" y2="1171.91" gradientTransform="translate(-2891.58 7536.09) scale(4.19 -5.2)" xlink:href="#linear-gradient-21"/>
    <linearGradient id="linear-gradient-70" x1="1162.2" y1="1232.6" x2="1136.78" y2="1245.19" gradientTransform="translate(-13061.73 19886.43) scale(13.58 -14.96)" xlink:href="#linear-gradient-21"/>
    <linearGradient id="linear-gradient-71" x1="1201.28" y1="1243.26" x2="1186.01" y2="1222.24" gradientTransform="translate(-3962.34 9613.69) scale(5.14 -6.85)" xlink:href="#linear-gradient-21"/>
  </defs>
  <g id="Group_332" data-name="Group 332">
    <path id="Path_391" data-name="Path 391" class="cls-63" d="M2874.36,912.8c-60.02-103.83-64.87-192.89-33.83-306.27,34.29-125.19,67.4-285.08-14.65-398.94-72.3-100.35-185.95-171.49-307.71-197.68-154.57-33.25-284.01,20.56-407.95,109.88-170.12,122.63-464.25,222.66-673.87,168.4-183.14-47.4-318.47-205.35-511.47-235.96-133.1-21.11-331.54,12.51-374.36,160.23-11.23,38.73-10.79,80.96-28.97,117.05-51.77,102.76-200.38,70.71-293.78,94.4C13.9,478.16-46.73,684.23,34.83,871.19c63.68,146,100.85,268.26,67.08,429.83-18.72,89.58-57.07,174.5-47.16,267.96,9.21,86.8,56.8,154.85,136.91,192.68,167.67,79.21,393.78,46.63,571.21,24.1,105.68-13.42,209.5-34.72,314.01-54.68,250.94-47.92,466.71-203.76,721.97-237.47,104.77-13.83,216.33-4.99,312.47,40.73,91.91,43.72,166.85,122.36,267.71,147.52,61.78,15.45,126.86,8.2,189.95-.75,112.29-15.94,231.57-41.04,310.18-121.47,56.59-57.92,84.32-137.36,101.26-215.92,37.59-174.41-20.69-283.32-106.04-430.93h-.04Z"/>
    <g id="Group_310" data-name="Group 310">
      <g id="Group_300" data-name="Group 300">
        <g id="Group_299" data-name="Group 299">
          <path id="Path_392" data-name="Path 392" class="cls-1" d="M2688.97,1703.99c-.08,24.47-19.92,44.28-44.39,44.33H244.73c-24.47-.06-44.29-19.86-44.39-44.33l-19.97-1379.13c0-24.39,28.74-71.99,81.38-68.4l2345.4-60.69c61.75-1.63,113.13,47.11,114.76,108.86,.05,1.83,.05,3.67,0,5.5l-32.96,1393.86h.01Z"/>
          <path id="Path_393" data-name="Path 393" class="cls-62" d="M2645.16,1661.46c-.07,23.16-18.83,41.92-41.99,41.99H302.61c-23.16-.07-41.92-18.83-41.99-41.99l-18.85-1251.98c2.21-75.34,68.27-102.41,108.31-100.82l2247.86-60.31c43.39-1.14,79.5,33.11,80.64,76.5,.03,1.31,.04,2.61,0,3.92l-33.43,1332.68h0Z"/>
          <g id="Group_297" data-name="Group 297">
            <path id="Path_394" data-name="Path 394" class="cls-39" d="M285.49,1063.36c-1.55,0-2.81-1.25-2.84-2.8l-1.5-101.55c-.02-1.57,1.23-2.86,2.8-2.88,1.54,.04,2.79,1.26,2.88,2.8l1.51,101.55c.02,1.57-1.23,2.86-2.8,2.88h-.06Z"/>
            <path id="Path_395" data-name="Path 395" class="cls-39" d="M281.83,814.54c-1.55,0-2.81-1.25-2.84-2.8l-5.71-388.88c.12-25.8,8.06-46.42,23.61-61.34,28.32-27.14,72.69-25.77,74.58-25.7l717.87-19.26c1.56-.04,2.87,1.19,2.91,2.76s-1.19,2.87-2.76,2.91l-718.04,19.26c-1.98-.06-44.02-1.37-70.61,24.13-14.4,13.8-21.76,33.04-21.87,57.2l5.71,388.82c.02,1.57-1.23,2.86-2.8,2.88h-.04l-.03,.02Z"/>
          </g>
          <g id="Group_298" data-name="Group 298" class="cls-44">
            <path id="Path_396" data-name="Path 396" class="cls-33" d="M361.98,1591.99c2.41-103.48,1.51-1019.81-4.41-1098.94-5.92-79.13,117.32-94,306.55-102.89,189.23-8.89,1785.84-44.17,1826.94-47.5,92.4-7.5,111.53,130.63,102.29,430.47-6.94,225.27-18.46,596.35-23.75,767.01-1.57,50.79-43.14,91.17-93.95,91.27-384.21,1.05-1856.77,5.3-1954.79,8.2-112.82,3.37-159.8-6.58-158.85-47.6h-.02Z"/>
          </g>
        </g>
        <rect id="Rectangle_106" data-name="Rectangle 106" class="cls-73" x="54.32" y="1741.63" width="2829.34" height="121.18" rx="33.14" ry="33.14"/>
      </g>
      <g id="Group_301" data-name="Group 301">
        <rect id="Rectangle_107" data-name="Rectangle 107" class="cls-69" x="581.91" y="1217.66" width="91.54" height="414.35"/>
        <rect id="Rectangle_108" data-name="Rectangle 108" class="cls-69" x="734.89" y="1360.07" width="91.54" height="271.94"/>
        <rect id="Rectangle_109" data-name="Rectangle 109" class="cls-69" x="887.85" y="1008.12" width="91.54" height="623.88"/>
        <rect id="Rectangle_110" data-name="Rectangle 110" class="cls-69" x="1040.81" y="1482.13" width="91.54" height="149.87"/>
        <rect id="Rectangle_111" data-name="Rectangle 111" class="cls-69" x="1193.77" y="1091.54" width="91.54" height="540.47"/>
        <rect id="Rectangle_112" data-name="Rectangle 112" class="cls-69" x="1346.73" y="1185.11" width="91.54" height="446.89"/>
        <rect id="Rectangle_113" data-name="Rectangle 113" class="cls-69" x="1499.7" y="1286.83" width="91.54" height="345.17"/>
        <rect id="Rectangle_114" data-name="Rectangle 114" class="cls-69" x="1652.67" y="882" width="91.54" height="750"/>
        <rect id="Rectangle_115" data-name="Rectangle 115" class="cls-69" x="1805.63" y="961.34" width="91.54" height="670.68"/>
        <rect id="Rectangle_116" data-name="Rectangle 116" class="cls-69" x="1958.59" y="1081.36" width="91.54" height="550.65"/>
        <rect id="Rectangle_117" data-name="Rectangle 117" class="cls-69" x="2111.56" y="1496.04" width="91.54" height="135.97"/>
        <rect id="Rectangle_118" data-name="Rectangle 118" class="cls-69" x="2264.52" y="1231.91" width="91.54" height="400.11"/>
      </g>
      <g id="Group_304" data-name="Group 304">
        <circle id="Ellipse_16" data-name="Ellipse 16" class="cls-39" cx="1979.66" cy="487.68" r="94.45"/>
        <circle id="Ellipse_17" data-name="Ellipse 17" class="cls-39" cx="2214.39" cy="487.61" r="94.48"/>
        <circle id="Ellipse_18" data-name="Ellipse 18" class="cls-39" cx="2449.11" cy="490.78" r="94.45"/>
        <g id="Group_302" data-name="Group 302">
          <path id="Path_397" data-name="Path 397" class="cls-69" d="M2035.79,467.72c12.74,30.99-2.05,66.44-33.04,79.18-30.99,12.74-66.44-2.05-79.18-33.04-12.74-30.99,2.05-66.44,33.04-79.18,7.32-3.01,15.15-4.56,23.06-4.56,1.02,0,2.05,.03,3.06,.08v-15.37c-1.01-.04-2.03-.07-3.06-.07-41.96,.03-75.94,34.07-75.91,76.03,.03,41.96,34.08,75.94,76.03,75.91,41.96-.03,75.94-34.07,75.91-76.03,0-9.97-1.98-19.85-5.8-29.06l-14.12,6.13v-.03Z"/>
          <path id="Path_398" data-name="Path 398" class="cls-69" d="M2245.69,542.13c-28.35,17.86-65.8,9.35-83.65-18.99-17.86-28.35-9.35-65.8,18.99-83.65,9.68-6.1,20.89-9.34,32.34-9.33,1.02,0,2.05,.03,3.06,.08v-15.37c-1.01-.04-2.03-.07-3.06-.07-41.99,.01-76.02,34.06-76.01,76.05,.01,41.99,34.06,76.02,76.05,76.01,14.1,0,27.92-3.93,39.92-11.33l-7.63-13.39Z"/>
          <path id="Path_399" data-name="Path 399" class="cls-69" d="M2499.73,524.88c-18.83,27.71-56.56,34.91-84.27,16.09-27.71-18.83-34.91-56.56-16.09-84.27,11.29-16.62,30.08-26.57,50.18-26.57,1.02,0,2.05,.03,3.06,.08v-15.37c-1.01-.04-2.03-.07-3.06-.07-41.99,0-76.03,34.04-76.03,76.04,0,41.99,34.04,76.03,76.04,76.03,25.02,0,48.43-12.31,62.62-32.91l-12.45-9.02v-.03Z"/>
        </g>
        <g id="Group_303" data-name="Group 303">
          <path id="Path_400" data-name="Path 400" class="cls-69" d="M2056.62,622.14h-153.9c-9.66-.15-17.62,7.55-17.77,17.21-.15,9.66,7.55,17.62,17.21,17.77,.18,0,.37,0,.55,0h153.9c9.66,.15,17.62-7.55,17.77-17.21,.15-9.66-7.55-17.62-17.21-17.77-.18,0-.37,0-.55,0Z"/>
          <path id="Path_401" data-name="Path 401" class="cls-69" d="M2291.34,622.14h-153.9c-9.66-.15-17.62,7.55-17.77,17.21-.15,9.66,7.55,17.62,17.21,17.77,.18,0,.37,0,.55,0h153.9c9.66-.15,17.37-8.11,17.21-17.77-.15-9.44-7.77-17.06-17.21-17.21Z"/>
          <path id="Path_402" data-name="Path 402" class="cls-69" d="M2372.15,657.12h153.9c9.66,.15,17.62-7.55,17.77-17.21,.15-9.66-7.55-17.62-17.21-17.77-.18,0-.37,0-.55,0h-153.9c-9.66-.15-17.62,7.55-17.77,17.21-.15,9.66,7.55,17.62,17.21,17.77,.18,0,.37,0,.55,0Z"/>
          <path id="Path_403" data-name="Path 403" class="cls-69" d="M1902.72,676.55h153.9c9.66,0,17.49,7.83,17.49,17.49v103.01c0,9.66-7.83,17.49-17.49,17.49h-153.9c-9.66,0-17.49-7.83-17.49-17.49v-103.01c0-9.66,7.83-17.49,17.49-17.49Z"/>
          <rect id="Rectangle_119" data-name="Rectangle 119" class="cls-69" x="2119.95" y="676.55" width="188.89" height="137.99" rx="55.74" ry="55.74"/>
          <rect id="Rectangle_120" data-name="Rectangle 120" class="cls-69" x="2354.66" y="676.55" width="188.89" height="137.99" rx="55.74" ry="55.74"/>
        </g>
      </g>
      <g id="Group_305" data-name="Group 305" class="cls-57">
        <rect id="Rectangle_121" data-name="Rectangle 121" class="cls-33" x="429.53" y="543.09" width="396.08" height="54.54"/>
        <rect id="Rectangle_122" data-name="Rectangle 122" class="cls-33" x="429.53" y="620.59" width="396.08" height="31.58"/>
        <rect id="Rectangle_123" data-name="Rectangle 123" class="cls-33" x="429.53" y="675.12" width="396.08" height="31.58"/>
        <rect id="Rectangle_124" data-name="Rectangle 124" class="cls-33" x="429.53" y="729.65" width="396.08" height="31.58"/>
      </g>
      <g id="Group_309" data-name="Group 309">
        <g id="Group_306" data-name="Group 306">
          <path id="Path_404" data-name="Path 404" class="cls-47" d="M970.82,732.67c-.04-7.31-6-13.21-13.31-13.17-7.31,.04-13.21,6-13.17,13.31,.04,7.31,6,13.21,13.31,13.17,0,0,.02,0,.03,0,7.3-.04,13.18-5.99,13.14-13.28,0,0,0-.02,0-.03Z"/>
          <path id="Path_405" data-name="Path 405" class="cls-20" d="M970.37,732.69c-.04-7.07-5.8-12.77-12.86-12.73-7.07,.04-12.77,5.8-12.73,12.86,.04,7.07,5.8,12.77,12.86,12.73,.01,0,.02,0,.03,0,7.06-.05,12.74-5.81,12.7-12.86Z"/>
          <path id="Path_406" data-name="Path 406" class="cls-4" d="M945.99,737.78c-1.36,0-2.53-.97-2.78-2.31-.12-.61-.19-1.22-.22-1.84-.09-1.56,1.11-2.9,2.67-2.99,1.56-.09,2.9,1.11,2.99,2.67,.03,.38,.07,.75,.14,1.12,.29,1.54-.72,3.02-2.26,3.31,0,0,0,0,0,0-.17,.03-.35,.05-.53,.06v-.02Z"/>
          <path id="Path_407" data-name="Path 407" class="cls-4" d="M957.61,747.4c-5.49,.02-10.53-3.05-13.03-7.94-.72-1.4-.16-3.11,1.23-3.82,1.4-.72,3.11-.16,3.82,1.23,1.83,3.53,5.75,5.45,9.66,4.72,1.53-.34,3.04,.63,3.38,2.16,.34,1.53-.63,3.04-2.16,3.38-.05,.01-.11,.02-.16,.03-.87,.17-1.76,.25-2.65,.26h-.09v-.02Z"/>
        </g>
        <g id="Group_307" data-name="Group 307">
          <path id="Path_408" data-name="Path 408" class="cls-55" d="M970.82,652.52c-.04-7.31-6-13.21-13.31-13.17-7.31,.04-13.21,6-13.17,13.31,.04,7.31,6,13.21,13.31,13.17,0,0,.02,0,.03,0,7.3-.05,13.18-6.01,13.14-13.31Z"/>
          <path id="Path_409" data-name="Path 409" class="cls-74" d="M970.37,652.51c-.04-7.07-5.8-12.77-12.86-12.73-7.07,.04-12.77,5.8-12.73,12.86,.04,7.07,5.8,12.77,12.86,12.73,.01,0,.02,0,.03,0,7.06-.05,12.74-5.81,12.7-12.86Z"/>
          <path id="Path_410" data-name="Path 410" class="cls-4" d="M945.99,657.62c-1.36,0-2.53-.97-2.78-2.31-.12-.61-.19-1.22-.22-1.84-.09-1.56,1.11-2.9,2.67-2.99,1.56-.09,2.9,1.11,2.99,2.67,.02,.38,.07,.75,.14,1.12,.29,1.54-.72,3.02-2.26,3.31,0,0,0,0,0,0-.17,.04-.35,.06-.53,.06v-.02Z"/>
          <path id="Path_411" data-name="Path 411" class="cls-4" d="M957.61,667.23c-5.49,.01-10.53-3.06-13.03-7.94-.72-1.4-.16-3.11,1.23-3.82,1.4-.72,3.11-.16,3.82,1.23,1.83,3.53,5.75,5.45,9.66,4.72,1.54-.29,3.02,.72,3.31,2.26,.29,1.54-.72,3.02-2.26,3.31-.87,.17-1.76,.25-2.65,.25h-.09Z"/>
        </g>
        <g id="Group_308" data-name="Group 308">
          <path id="Path_412" data-name="Path 412" class="cls-59" d="M970.82,572.35c-.04-7.31-6-13.21-13.31-13.17-7.31,.04-13.21,6-13.17,13.31,.04,7.31,6,13.21,13.31,13.17,0,0,.02,0,.03,0,7.3-.04,13.18-5.99,13.14-13.28,0,0,0-.02,0-.03Z"/>
          <path id="Path_413" data-name="Path 413" class="cls-32" d="M970.37,572.35c-.04-7.07-5.8-12.77-12.86-12.73-7.07,.04-12.77,5.8-12.73,12.86,.04,7.07,5.8,12.77,12.86,12.73,.01,0,.02,0,.03,0,7.06-.05,12.74-5.81,12.7-12.86Z"/>
          <path id="Path_414" data-name="Path 414" class="cls-4" d="M945.99,577.46c-1.36,0-2.53-.97-2.78-2.31-.12-.61-.19-1.22-.22-1.84-.09-1.56,1.11-2.9,2.67-2.99,1.56-.09,2.9,1.11,2.99,2.67h0c.03,.38,.07,.75,.14,1.12,.29,1.54-.72,3.02-2.26,3.31,0,0,0,0,0,0-.17,.04-.35,.06-.53,.06v-.02Z"/>
          <path id="Path_415" data-name="Path 415" class="cls-4" d="M957.61,587.07c-5.49,.02-10.53-3.05-13.03-7.94-.72-1.4-.16-3.11,1.23-3.82,1.4-.72,3.11-.16,3.82,1.23,1.56,3,4.67,4.87,8.04,4.85,.54,0,1.08-.05,1.61-.15,1.54-.31,3.04,.69,3.34,2.23,.31,1.54-.69,3.04-2.23,3.34-.02,0-.03,0-.05,0-.87,.17-1.76,.25-2.65,.26h-.09v-.02Z"/>
        </g>
        <path id="Path_416" data-name="Path 416" class="cls-33" d="M991.16,733.36l.06-2.26c-.47-5.36,3.31-10.15,8.63-10.95l354.17-.54c4.81-.03,8.71,5.08,8.7,11.38h0c.6,5.43-3.11,10.39-8.49,11.34l-354.23,2.78c-4.97,.14-9.02-5.25-8.84-11.76Z"/>
        <path id="Path_417" data-name="Path 417" class="cls-33" d="M991.16,653.59l.06-2.26c-.47-5.36,3.31-10.15,8.63-10.95l354.17-.54c4.81-.03,8.71,5.08,8.7,11.38h0c.6,5.43-3.11,10.39-8.49,11.34l-354.23,2.78c-4.97,.13-9.02-5.25-8.84-11.76Z"/>
        <path id="Path_418" data-name="Path 418" class="cls-33" d="M991.16,573.82l.06-2.26c-.47-5.36,3.31-10.15,8.63-10.95l354.17-.54c4.81-.03,8.71,5.08,8.7,11.39h0c.6,5.43-3.11,10.39-8.49,11.34l-354.23,2.78c-4.97,.14-9.02-5.25-8.84-11.76Z"/>
      </g>
    </g>
    <g id="Group_311" data-name="Group 311">
      <circle id="Ellipse_19" data-name="Ellipse 19" class="cls-26" cx="1292.11" cy="341.73" r="115.16"/>
      <circle id="Ellipse_20" data-name="Ellipse 20" class="cls-79" cx="1292.05" cy="341.76" r="111.27"/>
      <path id="Path_419" data-name="Path 419" class="cls-5" d="M1200.29,297.18c-.25,0-.5-.06-.72-.17-.79-.4-1.11-1.37-.71-2.16,17.66-35.26,53.76-57.49,93.19-57.37,6.31,0,12.61,.56,18.82,1.69,.87,.16,1.45,.98,1.29,1.85v.02c-.15,.86-.96,1.44-1.82,1.3-.02,0-.04,0-.05,0-44.15-8.02-88.32,13.94-108.56,53.98-.27,.54-.83,.88-1.44,.88v-.02Z"/>
      <circle id="Ellipse_21" data-name="Ellipse 21" class="cls-6" cx="1294.47" cy="344.22" r="94.19"/>
      <path id="Path_420" data-name="Path 420" class="cls-80" d="M1285.22,414.24v-10.25c-9.88-.36-19.61-2.47-28.75-6.23-2.67-1.21-4.06-4.18-3.28-7.01l2.6-9.54c.87-3.18,4.16-5.05,7.34-4.18,.27,.07,.52,.16,.78,.27,8.4,3.59,17.42,5.49,26.55,5.6,9.92,0,17.96-3.49,17.96-10.64,0-6.45-5.93-10.29-20.23-14.12-20.4-5.58-35.05-14.47-35.05-32.44,0-16.22,11.85-28.6,32.44-31.91v-10.25c0-3.3,2.67-5.97,5.97-5.97h6.02c3.3,0,5.97,2.67,5.97,5.97h0v9.2c7.76,.2,15.45,1.58,22.79,4.1,2.92,1.05,4.54,4.18,3.71,7.18l-2.4,8.83c-.85,3.17-4.12,5.06-7.3,4.2-.19-.05-.39-.11-.57-.19-7.14-2.72-14.72-4.09-22.35-4.06-12.2,0-15.69,5.05-15.69,9.6,0,5.58,7.33,9.42,23.19,14.31,22.67,6.8,32.09,16.22,32.09,33.13,0,15.53-11.51,29.47-33.83,32.96v11.47c0,3.3-2.67,5.97-5.97,5.97h-6.02c-3.3,0-5.97-2.67-5.97-5.97h0s.01-.04,.01-.04Z"/>
    </g>
    <g id="Group_312" data-name="Group 312">
      <circle id="Ellipse_22" data-name="Ellipse 22" class="cls-17" cx="1329.68" cy="877.72" r="167.54"/>
      <circle id="Ellipse_23" data-name="Ellipse 23" class="cls-9" cx="1329.75" cy="877.65" r="162"/>
      <path id="Path_421" data-name="Path 421" class="cls-5" d="M1196.17,812.7c-1.29,0-2.34-1.04-2.34-2.33,0-.37,.09-.73,.25-1.06,25.7-51.34,78.26-83.7,135.68-83.53,9.19,0,18.35,.83,27.39,2.47,1.27,.23,2.11,1.45,1.88,2.71-.22,1.26-1.41,2.11-2.68,1.89-.01,0-.03,0-.04,0-8.77-1.58-17.65-2.38-26.56-2.38-55.65-.16-106.59,31.2-131.51,80.96-.4,.79-1.21,1.29-2.09,1.29h.01Z"/>
      <circle id="Ellipse_24" data-name="Ellipse 24" class="cls-6" cx="1333.46" cy="881.26" r="137.15"/>
      <path id="Path_422" data-name="Path 422" class="cls-37" d="M1319.83,983.12v-14.92c-14.38-.53-28.56-3.6-41.87-9.07-3.89-1.75-5.92-6.09-4.76-10.19l3.8-13.89c1.27-4.63,6.06-7.36,10.69-6.09,.38,.11,.76,.24,1.12,.39,12.22,5.23,25.36,8,38.65,8.14,14.43,0,26.15-5.08,26.15-15.48,0-9.39-8.63-15-29.46-20.56-29.7-8.13-51.03-21.08-51.03-47.22,0-23.61,17.27-41.65,47.22-46.46v-14.92c0-4.8,3.89-8.7,8.69-8.7h8.77c4.8,0,8.7,3.89,8.7,8.69h0v13.4c11.3,.28,22.49,2.29,33.18,5.95,4.26,1.53,6.62,6.08,5.4,10.44l-3.49,12.85c-1.24,4.62-6,7.36-10.62,6.12-.28-.07-.55-.16-.82-.26-10.39-3.95-21.43-5.96-32.55-5.91-17.77,0-22.85,7.37-22.85,13.96,0,8.13,10.66,13.71,33.76,20.82,33,9.9,46.71,23.61,46.71,48.23,0,22.6-16.77,42.9-49.25,47.99v16.7c0,4.8-3.89,8.7-8.69,8.7h-8.77c-4.8,0-8.7-3.89-8.7-8.69h0s0-.02,0-.02Z"/>
    </g>
    <g id="Group_313" data-name="Group 313">
      <circle id="Ellipse_25" data-name="Ellipse 25" class="cls-7" cx="527.56" cy="256.22" r="129.88"/>
      <circle id="Ellipse_26" data-name="Ellipse 26" class="cls-12" cx="527.47" cy="256.27" r="125.5"/>
      <path id="Path_423" data-name="Path 423" class="cls-5" d="M424.02,205.98c-.28,0-.56-.06-.82-.19-.89-.46-1.24-1.54-.8-2.44,23.54-46.62,74.95-72.18,126.33-62.81,.98,.18,1.64,1.12,1.46,2.11-.18,.98-1.12,1.64-2.1,1.46h0c-6.79-1.24-13.68-1.86-20.58-1.86-43.11-.12-82.56,24.18-101.86,62.72-.31,.61-.93,1-1.62,1h0Z"/>
      <circle id="Ellipse_27" data-name="Ellipse 27" class="cls-6" cx="530.24" cy="259.03" r="106.22"/>
      <path id="Path_424" data-name="Path 424" class="cls-71" d="M519.82,338.01v-11.55c-11.14-.41-22.11-2.79-32.42-7.03-3.01-1.36-4.58-4.71-3.7-7.89l2.93-10.76c.98-3.58,4.67-5.7,8.26-4.72,.3,.08,.6,.18,.88,.31,9.47,4.05,19.64,6.19,29.94,6.3,11.18,0,20.26-3.93,20.26-11.99,0-7.27-6.69-11.61-22.81-15.93-23.02-6.29-39.52-16.33-39.52-36.58,0-18.3,13.38-32.25,36.58-35.99v-11.56c0-3.72,3.01-6.73,6.73-6.73h6.79c3.72,0,6.73,3.01,6.73,6.73v10.37c8.75,.22,17.42,1.78,25.7,4.61,3.29,1.19,5.12,4.71,4.18,8.09l-2.7,9.96c-.96,3.58-4.64,5.7-8.22,4.74-.22-.06-.43-.13-.64-.21-8.05-3.06-16.6-4.61-25.21-4.57-13.76,0-17.7,5.71-17.7,10.82,0,6.29,8.25,10.62,26.16,16.13,25.56,7.67,36.19,18.3,36.19,37.37,0,17.51-12.98,33.24-38.16,37.17v12.93c0,3.72-3.01,6.73-6.73,6.73h-6.79c-3.72,0-6.73-3.01-6.73-6.73h0Z"/>
    </g>
    <g id="Group_318" data-name="Group 318">
      <g id="Group_314" data-name="Group 314">
        <path id="Path_425" data-name="Path 425" class="cls-33" d="M659.18,1942.46c-4.21,.17-7.95-2.66-8.93-6.76l-141.13-747.13c-.62-4.5,2.52-8.66,7.03-9.29,.14-.02,.27-.03,.41-.05,4.7-.9,9.28,2.01,10.45,6.65l141.13,747.13c.62,4.5-2.52,8.66-7.03,9.29-.14,.02-.27,.03-.41,.05-.5,.08-1.01,.11-1.52,.11h0Z"/>
        <path id="Path_426" data-name="Path 426" class="cls-33" d="M183.02,1942.46c-.6,0-1.21-.06-1.8-.17-4.49-.53-7.7-4.59-7.17-9.08,.02-.15,.04-.31,.07-.46l166.37-737.42c1.32-4.61,6.01-7.39,10.69-6.34,4.49,.53,7.7,4.59,7.17,9.08-.02,.15-.04,.31-.07,.46l-166.37,737.42c-1.1,3.97-4.78,6.66-8.89,6.51Z"/>
        <path id="Path_427" data-name="Path 427" class="cls-33" d="M551.49,1373.21h-241.19c-4.47,.51-8.52-2.7-9.03-7.17s2.7-8.52,7.17-9.03c.62-.07,1.24-.07,1.86,0h241.19c4.47-.51,8.52,2.7,9.03,7.17,.51,4.47-2.7,8.52-7.17,9.03-.62,.07-1.24,.07-1.86,0Z"/>
        <path id="Path_428" data-name="Path 428" class="cls-33" d="M547.11,1373.21h-232.44c-4.47,.33-8.37-3.03-8.7-7.5-.33-4.47,3.03-8.37,7.5-8.7,.4-.03,.8-.03,1.2,0h232.44c4.47-.33,8.37,3.03,8.7,7.5,.33,4.47-3.03,8.37-7.5,8.7-.4,.03-.8,.03-1.2,0h0Z"/>
        <path id="Path_429" data-name="Path 429" class="cls-33" d="M551.49,1508.3h-241.19c-4.47,.51-8.52-2.7-9.03-7.17s2.7-8.52,7.17-9.03c.62-.07,1.24-.07,1.86,0h241.19c4.47-.51,8.52,2.7,9.03,7.17,.51,4.47-2.7,8.52-7.17,9.03-.62,.07-1.24,.07-1.86,0Z"/>
        <path id="Path_430" data-name="Path 430" class="cls-33" d="M573.39,1508.3H280.96c-4.47,.51-8.52-2.7-9.03-7.17s2.7-8.52,7.17-9.03c.62-.07,1.24-.07,1.86,0h292.43c4.47-.51,8.52,2.7,9.03,7.17s-2.7,8.52-7.17,9.03c-.62,.07-1.24,.07-1.86,0Z"/>
        <path id="Path_431" data-name="Path 431" class="cls-33" d="M551.49,1643.39h-241.19c-4.47,.51-8.52-2.7-9.03-7.17s2.7-8.52,7.17-9.03c.62-.07,1.24-.07,1.86,0h241.19c4.47-.51,8.52,2.7,9.03,7.17,.51,4.47-2.7,8.52-7.17,9.03-.62,.07-1.24,.07-1.86,0Z"/>
        <path id="Path_432" data-name="Path 432" class="cls-33" d="M601.32,1643.39H251.3c-4.47,.51-8.52-2.7-9.03-7.17-.51-4.47,2.7-8.52,7.17-9.03,.62-.07,1.24-.07,1.86,0h350.02c4.47-.51,8.52,2.7,9.03,7.17s-2.7,8.52-7.17,9.03c-.62,.07-1.24,.07-1.86,0Z"/>
        <path id="Path_433" data-name="Path 433" class="cls-33" d="M551.51,1778.49H223.18c-4.47,.51-8.52-2.7-9.03-7.17s2.7-8.52,7.17-9.03c.62-.07,1.24-.07,1.86,0h328.33c4.47-.51,8.52,2.7,9.03,7.17s-2.7,8.52-7.17,9.03c-.62,.07-1.24,.07-1.86,0Z"/>
        <path id="Path_434" data-name="Path 434" class="cls-33" d="M623.9,1778.49H223.18c-4.47,.51-8.52-2.7-9.03-7.17s2.7-8.52,7.17-9.03c.62-.07,1.24-.07,1.86,0h400.75c4.47-.51,8.52,2.7,9.03,7.17s-2.7,8.52-7.17,9.03c-.62,.07-1.24,.07-1.86,0h-.02Z"/>
      </g>
      <g id="Group_316" data-name="Group 316">
        <path id="Path_435" data-name="Path 435" class="cls-19" d="M334.49,1324.96s-5.89,9.27-7.37,35.26c-.14,2.33,1.64,4.34,3.97,4.48,.08,0,.16,0,.24,0h46.03c1.5,0,2.71-1.2,2.72-2.7,0-.3-.05-.59-.14-.87-2.7-7.99-10.86-27.45-29.06-38.57l-16.4,2.41h0Z"/>
        <path id="Path_436" data-name="Path 436" class="cls-45" d="M332.5,1307.36l2.6,21.84c.22,1.89,1.7,3.38,3.59,3.61,3.23,.41,6.51,.38,9.74-.1,3.23-.58,5.58-3.41,5.55-6.69v-21.08l-21.48,2.42h0Z"/>
        <path id="Path_437" data-name="Path 437" class="cls-60" d="M448.4,1322.55c-5.7,9.87-8.68,21.09-8.63,32.49,.1,4.44,3.74,7.98,8.19,7.94h71.49c1.89,0,3.43-1.53,3.43-3.42,0-1.12-.54-2.17-1.46-2.81-13.53-9.5-40.12-27.26-59.36-34.22h-13.68l.02,.02Z"/>
        <path id="Path_438" data-name="Path 438" class="cls-70" d="M441.03,1298.96l5.55,26.96c.59,3.02,3.52,4.98,6.53,4.39,.02,0,.03,0,.05,0,2.23-.51,4.36-1.41,6.29-2.65,2.18-1.39,3.31-3.96,2.85-6.51l-5.74-32.66-15.53,10.47Z"/>
        <path id="Path_439" data-name="Path 439" class="cls-58" d="M342.7,924.08s-19.31,17.02-22.95,37.51c-3.64,20.49,10.3,353.4,10.3,353.4,0,0,19.31,3.21,29.26-2.82,0,0,11.81-216.06,20.79-265.98,0,0,47.06,223.81,60.11,264.25,0,0,18.6,2.26,24.61-1.28,0,0-12.33-290.12-27.8-341.69l-94.31-43.38h-.01Z"/>
        <path id="Path_440" data-name="Path 440" class="cls-46" d="M379.52,1039.19c.18,0,.36-.03,.54-.07,1.13-.3,1.82-1.45,1.52-2.59l-8.2-31.47c-.14-.52-.46-.97-.91-1.26l-17.73-11.37c-.99-.63-2.3-.35-2.94,.64-.63,.99-.35,2.3,.64,2.94l17.02,10.91,7.99,30.66c.25,.94,1.09,1.59,2.07,1.59h0Z"/>
        <path id="Path_441" data-name="Path 441" class="cls-81" d="M533.26,731.71c-81.29-6.74-102.54,10.07-102.54,10.07l39.07,61.67s79.88-1.58,137.12-45.69c-9.29-10.21-17.01-21.74-22.92-34.21-16,6.77-33.4,9.57-50.71,8.16h-.01Z"/>
        <path id="Path_442" data-name="Path 442" class="cls-64" d="M660.56,612.38c-.07-1.38-1.24-2.44-2.61-2.38-.92,.04-1.74,.59-2.13,1.42l-10.38,22.13c-2,4.28-2.65,9.07-1.84,13.72l3.64,12.88c1.1,6.28-.55,12.72-4.53,17.7-15.57,19.78-35.73,35.46-58.73,45.69,5.91,12.47,13.64,24,22.92,34.21,22.77-17.11,39.79-40.74,48.79-67.76,4.71-1.45,7.86-5.89,7.67-10.82l-2.81-66.81h0Z"/>
        <path id="Path_443" data-name="Path 443" class="cls-16" d="M560.02,767.46c-28.61-30.84-83.14-44.77-114.68-50.49-13.81-2.54-27.45,5.19-32.35,18.35-14.21,38.18-52.83,137.51-60.31,154.58-6.15,14-12.56,27.68-16.63,36.23-2.44,5.1-.3,11.22,4.79,13.68,26.55,12.8,74.33,27.28,93.7,32.93,3.5,1.04,7.19-.96,8.23-4.46,.19-.63,.28-1.28,.27-1.94,0-3.77,1.02-7.46,2.97-10.69l73.36-122.24c45.73,50.7,85.77,55.34,116.5,44.23-5.09-15.61-8.5-31.71-10.18-48.04-45.45-7.78-65.67-62.15-65.67-62.15h0Z"/>
        <path id="Path_444" data-name="Path 444" class="cls-67" d="M727.47,791.66l-11.29-13.92c-26.55,18.24-72.32,54.96-90.47,51.85,1.68,16.33,5.09,32.43,10.18,48.04,40.5-14.6,91.58-85.97,91.58-85.97Z"/>
        <path id="Path_445" data-name="Path 445" class="cls-68" d="M712.9,780.03l36.1,28.89,48.33,6.13c-2.65-6.7-35.07-20.91-35.07-20.91,0,0-25.8-25.83-33.65-31.63-6.52-4.85-12.52,5.25-14.36,8.83-.38,.72-.58,1.18-.58,1.18l-.78,7.55v-.03Z"/>
        <path id="Path_446" data-name="Path 446" class="cls-38" d="M488.74,660.34l-24.37,59.48s28.02,19.39,50.55,17.55l12.16-53.49-38.33-23.54Z"/>
        <g id="Group_315" data-name="Group 315">
          <path id="Path_447" data-name="Path 447" class="cls-25" d="M529.93,619.79c.56,.79,17.63,62.48,17.63,62.48l-35.44,9-24.87-56.07s33.32-28.68,42.67-15.41h.01Z"/>
          <path id="Path_448" data-name="Path 448" class="cls-65" d="M500.59,643.72l10.79,30.54c.14,.39,.33,.76,.57,1.09,1.47,2.08,7.02,8.86,13.61,2.76,5.98-5.54,11.52-10.51,16.65-11.41,2.29-.4,4.52,1,5.15,3.24,2.75,9.75,4.74,19.7,5.95,29.76,.22,2.33-1.37,4.43-3.67,4.85-11.13,2.26-22.49,3.2-33.85,2.81-1.66-.11-3.13-1.13-3.81-2.65-3.38-7.38-13.72-29.76-17.56-35.55-3.61-5.44-12.46-5.3-16.17-4.96-1.21,.11-2.42-.29-3.34-1.09-5.35-3.66-6.72-10.96-3.05-16.31,.65-.95,1.43-1.79,2.32-2.51,1.77-1.76,1.78-4.63,.01-6.4-.04-.04-.08-.08-.12-.12-5.19-3.89-6.25-11.26-2.36-16.45,.26-.35,.55-.69,.85-1.01,4.74-5.92,12.89-7.87,19.79-4.74,2.06,.73,4.35-.12,5.44-2.01,.75-1.29,2.23-1.98,3.7-1.73,2.45,.16,4.58-1.69,4.74-4.15,0-.14,.01-.28,0-.43-.47-6.63,3.96-12.6,10.43-14.1,15.48-4.82,25.15,10.15,26.09,21.3s-16.12,15.45-26.16,14.68c-7.63-.57-13.31,6.99-15.58,10.66-.72,1.16-.87,2.58-.41,3.87v.05Z"/>
          <path id="Path_449" data-name="Path 449" class="cls-52" d="M498.45,680.28s-2.51-19.37-10.55-20.3c-8.04-.93-15.89,5.68-7.89,16.55,9.97,13.53,18.45,3.78,18.45,3.78v-.03Z"/>
        </g>
      </g>
      <g id="Group_317" data-name="Group 317">
        <circle id="Ellipse_28" data-name="Ellipse 28" class="cls-23" cx="906.24" cy="565.56" r="266.77"/>
        <circle id="Ellipse_29" data-name="Ellipse 29" class="cls-18" cx="906.24" cy="565.56" r="257.89"/>
        <path id="Path_450" data-name="Path 450" class="cls-5" d="M693.56,461.27c-.44,0-.88-.1-1.28-.3-1.4-.7-1.96-2.41-1.26-3.81,40.77-81.43,124.13-132.75,215.2-132.49,14.57,0,29.12,1.31,43.46,3.91,1.53,.32,2.52,1.82,2.2,3.36-.31,1.48-1.72,2.46-3.21,2.23-14.01-2.54-28.21-3.82-42.45-3.82-88.92-.25-170.32,49.87-210.13,129.38-.48,.95-1.46,1.56-2.53,1.56Z"/>
        <circle id="Ellipse_30" data-name="Ellipse 30" class="cls-6" cx="911.86" cy="571.19" r="218.27"/>
        <path id="Path_451" data-name="Path 451" class="cls-36" d="M890.43,733.46v-23.75c-22.89-.84-45.45-5.73-66.64-14.44-6.19-2.79-9.42-9.69-7.59-16.23l6.04-22.12c2.03-7.37,9.65-11.7,17.02-9.68,.61,.17,1.2,.37,1.78,.62,19.45,8.32,40.36,12.72,61.52,12.95,22.95,0,41.63-8.09,41.63-24.65,0-14.96-13.74-23.83-46.88-32.74-47.28-12.93-81.24-33.54-81.24-75.17,0-37.59,27.49-66.28,75.17-73.95v-23.75c0-7.64,6.19-13.83,13.83-13.83h13.97c7.64,0,13.83,6.19,13.83,13.83h0v21.34c17.99,.45,35.8,3.65,52.82,9.49,6.77,2.44,10.52,9.68,8.6,16.62l-5.55,20.45c-1.97,7.35-9.53,11.72-16.88,9.75-.45-.12-.89-.26-1.33-.43-16.54-6.29-34.09-9.48-51.78-9.4-28.29,0-36.37,11.72-36.37,22.23,0,12.93,16.98,21.83,53.75,33.14,52.54,15.76,74.37,37.59,74.37,76.79,0,35.97-26.67,68.31-78.4,76.39v26.58c0,7.64-6.19,13.83-13.83,13.83h-13.97c-7.64,0-13.83-6.19-13.83-13.83h0s-.03-.02-.03-.02Z"/>
      </g>
    </g>
    <g id="Group_319" data-name="Group 319">
      <path id="Path_452" data-name="Path 452" class="cls-4" d="M2168.52,1344.28l9.66-4.24c1.7-.96,2.3-3.11,1.35-4.81-.82-1.46-2.56-2.15-4.16-1.63h0l-.08,.04-9.48,4.2-.08,.04c-1.75,.8-2.53,2.87-1.73,4.62,.78,1.72,2.79,2.5,4.53,1.77h0Z"/>
      <path id="Path_453" data-name="Path 453" class="cls-4" d="M2200.32,1329.21l9.27-5.03c1.74-.94,2.38-3.11,1.44-4.85s-3.11-2.38-4.85-1.44h0l-.08,.06-9.1,4.99-.08,.04c-1.72,.94-2.36,3.09-1.42,4.81,.94,1.72,3.09,2.36,4.81,1.42h.01Z"/>
      <path id="Path_454" data-name="Path 454" class="cls-4" d="M2230.74,1311.55l8.83-5.77c1.69-1.08,2.18-3.33,1.1-5.02-1.08-1.69-3.33-2.18-5.02-1.1-.02,.01-.04,.02-.06,.04h0l-.07,.06-8.67,5.74-.07,.04c-1.67,1.1-2.14,3.34-1.04,5.01s3.34,2.14,5.01,1.04h0l-.02-.03Z"/>
      <path id="Path_455" data-name="Path 455" class="cls-4" d="M2259.63,1291.48l8.35-6.47c1.65-1.21,2.01-3.52,.8-5.17-1.21-1.65-3.52-2.01-5.17-.8-.05,.04-.11,.08-.16,.12h0l-.07,.05-8.19,6.39-.07,.05c-1.61,1.25-1.9,3.56-.65,5.17,1.25,1.61,3.56,1.9,5.17,.65h0v.02Z"/>
      <path id="Path_456" data-name="Path 456" class="cls-4" d="M2286.84,1269.2l7.82-7.09c1.54-1.4,1.66-3.78,.26-5.32-1.4-1.54-3.78-1.66-5.32-.26h0l-.07,.07-7.67,6.99-.07,.06c-1.48,1.45-1.5,3.82-.05,5.3,1.37,1.4,3.59,1.5,5.09,.24h0Z"/>
      <path id="Path_457" data-name="Path 457" class="cls-4" d="M2312.28,1244.9l7.27-7.64c1.46-1.53,1.4-3.96-.13-5.42-1.53-1.46-3.96-1.4-5.42,.13h0l-.06,.07-7.12,7.55-.06,.07c-1.45,1.53-1.38,3.93,.15,5.38,1.53,1.45,3.93,1.38,5.38-.15v.02Z"/>
      <path id="Path_458" data-name="Path 458" class="cls-4" d="M2335.84,1218.79l6.69-8.16c1.33-1.69,1.04-4.14-.65-5.47-1.64-1.3-4.02-1.06-5.38,.53h0l-.06,.08-6.55,8.04-.06,.07c-1.31,1.69-1,4.13,.69,5.44,1.63,1.26,3.96,1.03,5.3-.53h0Z"/>
      <path id="Path_459" data-name="Path 459" class="cls-4" d="M2357.46,1191.03l6.09-8.63c1.42-1.67,1.23-4.18-.44-5.6-1.67-1.42-4.18-1.23-5.6,.44-.15,.18-.29,.38-.41,.58h0l-.04,.08-5.97,8.5-.04,.07c-1.3,1.74-.95,4.2,.79,5.5,1.74,1.3,4.2,.95,5.5-.79,.05-.06,.09-.12,.13-.19h-.01Z"/>
      <path id="Path_460" data-name="Path 460" class="cls-4" d="M2377.06,1161.83l5.47-9.02c1.16-1.89,.57-4.37-1.32-5.54-1.89-1.16-4.37-.57-5.54,1.32,0,.02-.02,.03-.03,.05h0l-.04,.08-5.36,8.89-.04,.07c-1.14,1.89-.54,4.35,1.36,5.5s4.35,.54,5.5-1.36h0Z"/>
      <path id="Path_461" data-name="Path 461" class="cls-4" d="M2394.56,1131.33l4.85-9.38c1.03-2,.24-4.47-1.76-5.5-2-1.03-4.47-.24-5.5,1.76h0l-.04,.08-4.72,9.27-.04,.07c-.97,2.03-.11,4.45,1.92,5.42,1.94,.93,4.27,.18,5.31-1.71l-.02-.02Z"/>
      <path id="Path_462" data-name="Path 462" class="cls-4" d="M2409.92,1099.69l4.18-9.71c.91-2.11-.07-4.55-2.17-5.46-2.11-.91-4.55,.07-5.46,2.17h0l-.03,.1-4.07,9.55-.03,.08c-.9,2.09,.07,4.52,2.17,5.42,2.1,.9,4.52-.07,5.42-2.17h-.01Z"/>
      <path id="Path_463" data-name="Path 463" class="cls-4" d="M2423.06,1067.05l3.49-9.96c.86-2.16-.19-4.61-2.35-5.48-2.16-.86-4.61,.19-5.48,2.35-.04,.11-.08,.21-.11,.32h0l-.03,.1-3.41,9.81-.03,.08c-.76,2.19,.4,4.58,2.58,5.34,2.19,.76,4.58-.4,5.34-2.58h0Z"/>
      <path id="Path_464" data-name="Path 464" class="cls-4" d="M2433.89,1033.58l2.78-10.18c.6-2.28-.77-4.62-3.05-5.22-2.25-.59-4.55,.72-5.19,2.96h0l-.03,.11-2.7,10.01-.03,.08c-.55,2.29,.86,4.59,3.15,5.14,2.2,.53,4.42-.75,5.08-2.91h-.02Z"/>
      <path id="Path_465" data-name="Path 465" class="cls-4" d="M2442.34,999.41l2.07-10.38c.47-2.35-1.06-4.63-3.41-5.1-2.35-.47-4.63,1.06-5.1,3.41h0v.11l-1.98,10.19v.1c-.5,2.33,.98,4.62,3.31,5.12s4.62-.98,5.12-3.31c.01-.05,.02-.1,.03-.14h-.04Z"/>
      <path id="Path_466" data-name="Path 466" class="cls-4" d="M2448.31,964.69l1.29-10.49c.19-2.43-1.62-4.56-4.05-4.75-2.28-.18-4.32,1.41-4.7,3.67h0v.11l-1.23,10.29v.1c-.36,2.39,1.3,4.62,3.69,4.98,2.39,.36,4.62-1.3,4.98-3.69,.01-.08,.02-.16,.03-.24v.02Z"/>
      <path id="Path_467" data-name="Path 467" class="cls-4" d="M2451.7,929.64l.5-10.54c.12-2.47-1.78-4.56-4.25-4.69s-4.56,1.78-4.69,4.25h0v.12l-.44,10.34v.1c-.11,2.46,1.79,4.54,4.25,4.65,2.46,.11,4.54-1.79,4.65-4.25h-.02Z"/>
      <path id="Path_468" data-name="Path 468" class="cls-4" d="M2452.39,894.42l-.33-10.56c-.08-2.49-2.15-4.44-4.64-4.36s-4.44,2.15-4.36,4.64h0v.11l.33,10.36v.11c.08,2.48,2.16,4.43,4.64,4.35,2.48-.08,4.43-2.16,4.35-4.64h.01Z"/>
      <path id="Path_469" data-name="Path 469" class="cls-4" d="M2450.3,859.25l-1.18-10.51c-.25-2.49-2.46-4.3-4.95-4.06-2.49,.25-4.3,2.46-4.06,4.95,0,.04,0,.08,.01,.12h0v.11l1.17,10.29v.11c.31,2.48,2.57,4.24,5.05,3.92,2.43-.31,4.18-2.49,3.94-4.93h.01Z"/>
      <path id="Path_470" data-name="Path 470" class="cls-4" d="M2445.38,824.34l-2.03-10.39c-.49-2.46-2.88-4.06-5.34-3.58-2.46,.49-4.06,2.88-3.58,5.34h0l.03,.11,2.01,10.15,.03,.11c.49,2.46,2.88,4.06,5.34,3.57s4.06-2.88,3.57-5.34l-.02,.02Z"/>
      <path id="Path_471" data-name="Path 471" class="cls-4" d="M2437.56,789.95c-.94-3.41-1.91-6.8-2.91-10.18-.74-2.41-3.3-3.76-5.71-3.02-2.37,.73-3.73,3.23-3.04,5.62v.03c1,3.31,1.95,6.62,2.87,9.94v.03c.67,2.44,3.19,3.87,5.62,3.2,2.44-.67,3.87-3.19,3.2-5.62h-.03Z"/>
      <path id="Path_472" data-name="Path 472" class="cls-4" d="M2426.84,756.33l-3.77-9.9c-.9-2.37-3.56-3.56-5.93-2.66-2.37,.9-3.56,3.56-2.66,5.93h0l.04,.11,3.7,9.68,.04,.11c.94,2.35,3.61,3.49,5.96,2.55,2.3-.92,3.45-3.5,2.6-5.82h.02Z"/>
      <path id="Path_473" data-name="Path 473" class="cls-4" d="M2413.34,723.76l-4.57-9.54c-1.13-2.28-3.9-3.21-6.18-2.08-2.23,1.11-3.18,3.79-2.14,6.05h0l.04,.11,4.49,9.33,.06,.1c1.16,2.26,3.94,3.15,6.2,1.99,2.17-1.12,3.09-3.73,2.11-5.96h0Z"/>
      <path id="Path_474" data-name="Path 474" class="cls-4" d="M2397.24,692.4l-5.32-9.14c-1.3-2.2-4.14-2.93-6.34-1.64-2.18,1.29-2.92,4.09-1.67,6.29h0l.06,.1,5.22,8.95,.05,.1c1.3,2.2,4.15,2.93,6.35,1.63,2.18-1.29,2.92-4.1,1.66-6.29v.02Z"/>
      <path id="Path_475" data-name="Path 475" class="cls-4" d="M2378.7,662.41l-6.01-8.71c-1.46-2.12-4.37-2.65-6.48-1.19-2.12,1.46-2.65,4.37-1.19,6.48h0l.06,.1,5.9,8.52,.06,.08c1.46,2.11,4.36,2.64,6.47,1.17,2.11-1.46,2.64-4.36,1.17-6.47h.03Z"/>
      <path id="Path_476" data-name="Path 476" class="cls-4" d="M2357.92,633.95l-6.65-8.23c-1.62-2.01-4.57-2.33-6.58-.71-2.01,1.62-2.33,4.57-.71,6.58h0l.07,.08,6.52,8.06,.07,.08c1.67,1.96,4.62,2.19,6.58,.52,1.89-1.61,2.18-4.42,.67-6.39h.01Z"/>
      <path id="Path_477" data-name="Path 477" class="cls-4" d="M2335.09,607.11l-7.22-7.71c-1.72-1.95-4.69-2.14-6.64-.42-1.95,1.72-2.14,4.69-.42,6.64,.06,.07,.13,.14,.2,.21h0l.07,.08,7.09,7.56,.07,.07c1.77,1.89,4.74,1.98,6.63,.21,1.89-1.77,1.98-4.74,.21-6.63h0Z"/>
      <path id="Path_478" data-name="Path 478" class="cls-4" d="M2310.37,582.02l-7.77-7.19c-1.92-1.77-4.9-1.65-6.68,.26-1.77,1.92-1.65,4.9,.26,6.67h0l.07,.07,7.63,7.03,.07,.07c1.91,1.77,4.89,1.65,6.66-.26,1.77-1.91,1.65-4.89-.26-6.66h.01Z"/>
      <path id="Path_479" data-name="Path 479" class="cls-4" d="M2283.94,558.72l-8.24-6.62c-2.03-1.66-5.02-1.36-6.68,.67-1.66,2.03-1.36,5.02,.67,6.68,.02,.02,.05,.04,.07,.06h0l.08,.07,8.09,6.48,.08,.07c2.07,1.6,5.05,1.23,6.65-.84,1.57-2.02,1.25-4.92-.72-6.56v-.02Z"/>
      <path id="Path_480" data-name="Path 480" class="cls-4" d="M2255.94,537.36l-8.68-6.02c-2.19-1.46-5.15-.87-6.61,1.32-1.42,2.13-.91,5.01,1.17,6.51h0l.08,.06,8.52,5.9,.08,.06c2.18,1.48,5.14,.91,6.61-1.27,1.45-2.14,.93-5.06-1.19-6.55h.01Z"/>
      <path id="Path_481" data-name="Path 481" class="cls-4" d="M2226.55,517.97l-9.07-5.41c-2.28-1.34-5.21-.58-6.56,1.69-1.33,2.26-.6,5.18,1.65,6.53h0l.08,.06,8.91,5.3,.08,.06c2.28,1.33,5.21,.55,6.53-1.73,1.31-2.25,.58-5.13-1.64-6.48h.01Z"/>
      <path id="Path_482" data-name="Path 482" class="cls-4" d="M2195.88,500.65l-9.43-4.78c-2.37-1.2-5.27-.25-6.47,2.12-1.2,2.37-.25,5.27,2.12,6.47h0l.08,.06,9.27,4.67,.08,.04c2.37,1.2,5.26,.25,6.45-2.12s.25-5.26-2.12-6.45h0Z"/>
      <path id="Path_483" data-name="Path 483" class="cls-4" d="M2164.07,485.52l-9.74-4.1c-2.44-1.08-5.29,.03-6.37,2.47-1.08,2.44,.03,5.29,2.47,6.37,.05,.02,.1,.04,.15,.06h0l.1,.04,9.55,4.02,.1,.04c2.44,1.06,5.28-.05,6.35-2.49,1.06-2.44-.05-5.28-2.49-6.35-.04-.02-.08-.03-.12-.05h0Z"/>
      <path id="Path_484" data-name="Path 484" class="cls-4" d="M2131.28,472.65l-10.03-3.41c-2.54-.86-5.3,.49-6.16,3.03-.86,2.54,.49,5.3,3.03,6.16h0l.1,.04,9.83,3.32,.1,.03c2.49,.98,5.31-.25,6.29-2.74s-.25-5.31-2.74-6.29c-.14-.06-.29-.11-.44-.15h.01Z"/>
      <path id="Path_485" data-name="Path 485" class="cls-4" d="M2097.63,462.17l-10.23-2.65c-2.6-.68-5.26,.89-5.94,3.49-.68,2.6,.89,5.26,3.49,5.94h0l.11,.03,10.03,2.59,.11,.03c2.6,.68,5.26-.88,5.93-3.48,.68-2.6-.88-5.26-3.48-5.93h-.01Z"/>
      <path id="Path_486" data-name="Path 486" class="cls-4" d="M2063.31,454.19l-10.4-1.88c-2.66-.49-5.21,1.27-5.7,3.94-.49,2.66,1.27,5.21,3.94,5.7h.11l10.18,1.83h.11c2.65,.48,5.19-1.29,5.67-3.94,.48-2.65-1.29-5.19-3.94-5.67h0l.04,.03Z"/>
      <path id="Path_487" data-name="Path 487" class="cls-4" d="M2028.45,448.83l-10.53-1.08c-2.7-.28-5.12,1.69-5.4,4.39s1.69,5.12,4.39,5.4h.12l10.3,1.05h.11c2.69,.33,5.14-1.58,5.47-4.27,.33-2.69-1.58-5.14-4.27-5.47-.07,0-.14-.02-.2-.02h0Z"/>
      <path id="Path_488" data-name="Path 488" class="cls-4" d="M1993.26,446.19l-10.59-.23c-2.73,0-4.95,2.2-4.96,4.94,0,2.66,2.09,4.84,4.74,4.95h.12l10.34,.22h.12c2.73,0,4.94-2.2,4.95-4.93,0-2.65-2.08-4.83-4.73-4.95h0Z"/>
      <path id="Path_489" data-name="Path 489" class="cls-4" d="M1957.99,446.41l-10.57,.64c-2.74,.16-4.83,2.51-4.67,5.25,.16,2.74,2.51,4.83,5.25,4.67h.12l10.32-.64h.12c2.73-.24,4.75-2.66,4.51-5.39-.23-2.62-2.47-4.61-5.1-4.53h.01Z"/>
      <path id="Path_490" data-name="Path 490" class="cls-4" d="M1922.81,449.54l-10.49,1.52c-2.73,.39-4.62,2.92-4.22,5.65,.39,2.73,2.92,4.62,5.65,4.22h.12l10.23-1.5h.12c2.73-.39,4.62-2.92,4.23-5.65-.39-2.73-2.92-4.62-5.65-4.23h0v-.02Z"/>
      <path id="Path_491" data-name="Path 491" class="cls-4" d="M1888.06,455.53l-10.32,2.29c-2.7,.6-4.41,3.27-3.81,5.97,.6,2.7,3.27,4.41,5.97,3.81h0l.1-.03,10.11-2.26,.1-.03c2.7-.6,4.39-3.27,3.79-5.97-.6-2.7-3.27-4.39-5.97-3.79h.03Z"/>
      <path id="Path_492" data-name="Path 492" class="cls-4" d="M1853.87,463.99l-10.15,2.99c-2.68,.73-4.26,3.5-3.53,6.18,.73,2.68,3.5,4.26,6.18,3.53,.06-.02,.13-.04,.19-.06h0l.1-.03,9.93-2.93,.1-.03c2.66-.78,4.18-3.58,3.4-6.24-.78-2.66-3.58-4.18-6.24-3.4l.03-.02Z"/>
      <path id="Path_493" data-name="Path 493" class="cls-4" d="M1820.34,474.7l-9.92,3.63c-2.63,.93-4.01,3.82-3.08,6.45,.93,2.63,3.82,4.01,6.45,3.08,.04-.01,.08-.03,.11-.04h0l.08-.03,9.71-3.57,.08-.03c2.61-.99,3.92-3.91,2.93-6.52-.97-2.57-3.82-3.88-6.41-2.97h.04Z"/>
      <path id="Path_494" data-name="Path 494" class="cls-4" d="M1787.57,487.5l-9.67,4.21c-2.54,1.18-3.65,4.19-2.47,6.74,1.14,2.46,4.01,3.59,6.52,2.57h0l.08-.04,9.5-4.15,.08-.03c2.57-1.12,3.74-4.1,2.63-6.67-1.12-2.57-4.1-3.74-6.67-2.63h0Z"/>
      <path id="Path_495" data-name="Path 495" class="cls-4" d="M1755.61,502.13l-9.43,4.71c-2.49,1.32-3.43,4.41-2.1,6.9,1.28,2.39,4.2,3.37,6.66,2.23h0l.07-.04,9.27-4.65,.07-.04c2.5-1.29,3.48-4.36,2.19-6.85-1.27-2.46-4.26-3.45-6.75-2.25h.02Z"/>
      <path id="Path_496" data-name="Path 496" class="cls-4" d="M1724.45,518.35l-9.18,5.14c-2.49,1.33-3.43,4.43-2.1,6.93,1.33,2.49,4.43,3.43,6.93,2.1,.06-.03,.12-.06,.17-.1h0l.06-.04,9.07-5.08,.06-.03c2.44-1.43,3.26-4.57,1.83-7-1.39-2.37-4.4-3.22-6.83-1.93h0Z"/>
      <path id="Path_497" data-name="Path 497" class="cls-4" d="M1694.09,535.93l-8.96,5.5c-2.42,1.49-3.18,4.66-1.69,7.08s4.66,3.18,7.08,1.69h0l.04-.03,8.86-5.45,.06-.03c2.42-1.49,3.17-4.65,1.68-7.07-1.49-2.42-4.65-3.17-7.07-1.68h0Z"/>
      <path id="Path_498" data-name="Path 498" class="cls-4" d="M1664.45,554.62l-8.76,5.8c-2.41,1.52-3.14,4.71-1.62,7.13,1.52,2.41,4.71,3.14,7.13,1.62,.07-.04,.13-.08,.19-.13h0l.04-.03,8.68-5.76,.04-.03c2.38-1.58,3.02-4.78,1.45-7.15s-4.78-3.02-7.15-1.45h0Z"/>
      <path id="Path_499" data-name="Path 499" class="cls-4" d="M1635.43,574.26l-8.6,6.04c-2.34,1.65-2.91,4.89-1.26,7.23,1.65,2.34,4.89,2.91,7.23,1.26h0l.03-.03,8.52-6.01,.03-.03c2.31-1.69,2.82-4.93,1.13-7.25-1.65-2.26-4.79-2.81-7.11-1.23h.03Z"/>
      <path id="Path_500" data-name="Path 500" class="cls-4" d="M1606.96,594.63l-8.45,6.23c-2.25,1.8-2.61,5.08-.81,7.33,1.7,2.12,4.74,2.58,6.99,1.06h0l.03-.03,8.38-6.2h.03c2.25-1.8,2.61-5.08,.81-7.33-1.7-2.12-4.74-2.58-6.99-1.06h0Z"/>
      <path id="Path_501" data-name="Path 501" class="cls-4" d="M1578.93,615.56l-8.34,6.37c-2.29,1.75-2.73,5.03-.98,7.33,1.75,2.29,5.03,2.73,7.33,.98h0l8.3-6.34h0c2.25-1.82,2.6-5.11,.78-7.36-1.74-2.16-4.87-2.58-7.13-.96l.04-.02Z"/>
      <path id="Path_502" data-name="Path 502" class="cls-4" d="M1551.24,636.89l-8.27,6.47c-2.28,1.79-2.68,5.09-.9,7.37,1.79,2.28,5.08,2.68,7.37,.9h0l8.24-6.47c2.27-1.81,2.64-5.11,.83-7.38-1.78-2.23-5.01-2.63-7.28-.9h.02Z"/>
      <path id="Path_503" data-name="Path 503" class="cls-4" d="M1523.77,658.49l-8.21,6.51c-2.12,2.01-2.21,5.36-.2,7.49,1.76,1.86,4.6,2.19,6.75,.78h0l8.19-6.52c2.32-1.75,2.78-5.06,1.02-7.37s-5.06-2.78-7.37-1.02c-.06,.05-.12,.1-.19,.15h.01Z"/>
      <path id="Path_504" data-name="Path 504" class="cls-4" d="M1496.43,680.19l-8.2,6.51c-2.24,1.89-2.52,5.23-.63,7.46,1.81,2.15,4.98,2.51,7.23,.82h0l8.18-6.54c2.19-1.94,2.39-5.29,.45-7.48-1.79-2.02-4.82-2.37-7.03-.81v.03Z"/>
      <path id="Path_505" data-name="Path 505" class="cls-4" d="M1469.13,701.88l-8.21,6.48c-2.31,1.82-2.7,5.16-.89,7.46,1.82,2.31,5.16,2.7,7.46,.88h0l8.21-6.51c2.3-1.82,2.69-5.16,.87-7.46-1.82-2.3-5.16-2.69-7.46-.86h.01Z"/>
      <path id="Path_506" data-name="Path 506" class="cls-4" d="M1441.71,723.43l-8.25,6.41h0c-2.32,1.83-2.71,5.19-.89,7.51,1.81,2.29,5.12,2.71,7.44,.94h0l8.27-6.45c2.4-1.71,2.96-5.03,1.26-7.43-1.71-2.4-5.03-2.96-7.43-1.26-.14,.1-.27,.2-.39,.31v-.02Z"/>
      <path id="Path_507" data-name="Path 507" class="cls-4" d="M1414.12,744.68l-8.32,6.3h0c-2.36,1.8-2.81,5.17-1.02,7.53,1.79,2.34,5.12,2.81,7.48,1.05h0l8.38-6.34c2.38-1.75,2.89-5.11,1.14-7.49-1.75-2.38-5.11-2.89-7.49-1.14-.04,.03-.08,.06-.11,.09h-.07Z"/>
      <path id="Path_508" data-name="Path 508" class="cls-4" d="M1386.23,765.49l-8.43,6.13h-.03c-2.36,1.83-2.79,5.22-.96,7.57,1.74,2.25,4.93,2.76,7.29,1.17h0l8.49-6.18c2.45-1.69,3.06-5.04,1.37-7.49-1.69-2.45-5.04-3.06-7.49-1.37-.07,.05-.15,.1-.22,.16h-.02Z"/>
      <path id="Path_509" data-name="Path 509" class="cls-4" d="M1357.96,785.72l-8.57,5.93-.04,.03c-2.49,1.65-3.16,5.01-1.51,7.5,1.65,2.49,5.01,3.16,7.5,1.51,.05-.04,.11-.07,.16-.11h0l8.64-6c2.45-1.71,3.06-5.08,1.35-7.53-1.71-2.45-5.08-3.06-7.53-1.35h-.03l.03,.03Z"/>
      <path id="Path_510" data-name="Path 510" class="cls-4" d="M1329.2,805.21l-8.75,5.68-.04,.03c-2.47,1.7-3.09,5.08-1.4,7.55,1.64,2.38,4.85,3.06,7.31,1.55h0l8.83-5.74c2.51-1.64,3.22-5,1.58-7.51-1.64-2.51-5-3.22-7.51-1.58l-.04,.03h.03Z"/>
      <path id="Path_511" data-name="Path 511" class="cls-4" d="M1299.89,823.79l-8.93,5.36-.06,.03c-2.58,1.55-3.42,4.9-1.87,7.48,1.55,2.58,4.9,3.42,7.48,1.87h0l9.03-5.44c2.54-1.62,3.27-4.99,1.65-7.53-1.56-2.44-4.76-3.23-7.27-1.8l-.06,.03,.03,.02Z"/>
      <path id="Path_512" data-name="Path 512" class="cls-4" d="M1269.87,841.23l-9.13,5-.06,.03c-2.65,1.45-3.62,4.77-2.18,7.42,1.45,2.65,4.77,3.62,7.42,2.18h0l9.24-5.07c2.65-1.45,3.61-4.78,2.16-7.42s-4.78-3.61-7.42-2.16l-.06,.03h.02Z"/>
      <path id="Path_513" data-name="Path 513" class="cls-4" d="M1239.24,857.47l-9.31,4.65-.06,.03c-2.66,1.43-3.66,4.74-2.23,7.4,1.36,2.54,4.46,3.58,7.08,2.39l9.43-4.7c2.77-1.22,4.03-4.45,2.81-7.22-1.21-2.77-4.45-4.03-7.22-2.81-.15,.07-.31,.14-.45,.22h0l-.06,.03h0Z"/>
      <path id="Path_514" data-name="Path 514" class="cls-4" d="M1208.03,872.54l-9.47,4.28-.06,.03c-2.74,1.24-3.95,4.46-2.71,7.2s4.46,3.95,7.2,2.71l9.6-4.32c2.76-1.22,4.01-4.44,2.79-7.19-1.22-2.76-4.44-4.01-7.19-2.79-.03,.01-.06,.03-.09,.04h0l-.06,.03h0Z"/>
      <path id="Path_515" data-name="Path 515" class="cls-4" d="M1176.24,886.42l-9.62,3.92-.06,.03c-2.74,1.2-3.99,4.39-2.79,7.14,1.15,2.64,4.17,3.91,6.87,2.9l9.75-3.97c2.79-1.1,4.15-4.25,3.06-7.03-1.1-2.79-4.25-4.16-7.03-3.06-.03,.01-.06,.03-.09,.04h0l-.06,.03h0Z"/>
      <path id="Path_516" data-name="Path 516" class="cls-4" d="M1143.96,899.08l-9.76,3.56h-.06c-2.75,1.16-4.04,4.33-2.88,7.08,1.08,2.56,3.92,3.88,6.57,3.07l9.89-3.59c2.81-.98,4.3-4.06,3.32-6.87s-4.06-4.3-6.87-3.32c-.04,.01-.08,.03-.12,.04h0l-.05,.03h-.03Z"/>
      <path id="Path_517" data-name="Path 517" class="cls-4" d="M1111.22,910.51l-9.9,3.2h-.07c-2.81,.97-4.29,4.03-3.33,6.84,.94,2.72,3.85,4.22,6.61,3.4l10.01-3.21c2.85-.84,4.47-3.84,3.62-6.68s-3.84-4.47-6.68-3.62c-.08,.02-.15,.05-.23,.07h0l-.06,.03h.02Z"/>
      <path id="Path_518" data-name="Path 518" class="cls-4" d="M1078.1,920.74l-10.01,2.82h-.06c-2.84,.8-4.5,3.75-3.7,6.59,.8,2.84,3.75,4.5,6.59,3.7l10.12-2.84c2.84-.8,4.5-3.75,3.7-6.59-.8-2.84-3.75-4.5-6.59-3.7h-.05Z"/>
      <path id="Path_519" data-name="Path 519" class="cls-4" d="M1044.61,929.73l-10.11,2.47h-.06c-2.85,.73-4.57,3.62-3.84,6.47,.71,2.8,3.53,4.52,6.35,3.87l10.22-2.48c2.85-.73,4.57-3.62,3.84-6.47-.71-2.8-3.53-4.52-6.35-3.87h-.05Z"/>
      <path id="Path_520" data-name="Path 520" class="cls-4" d="M1010.79,937.52l-10.19,2.09h-.05c-2.85,.67-4.62,3.52-3.95,6.36,.64,2.74,3.31,4.5,6.08,4.01l10.32-2.1c2.88-.53,4.78-3.29,4.25-6.16-.53-2.88-3.29-4.78-6.16-4.25-.07,.01-.14,.03-.21,.04h-.06l-.03,.02Z"/>
      <path id="Path_521" data-name="Path 521" class="cls-4" d="M976.72,944.08l-10.28,1.73h-.06c-2.87,.49-4.81,3.21-4.32,6.08,.49,2.87,3.21,4.81,6.08,4.32l10.39-1.73c2.86-.54,4.74-3.3,4.2-6.16-.53-2.77-3.14-4.64-5.93-4.24h-.09Z"/>
      <path id="Path_522" data-name="Path 522" class="cls-4" d="M942.42,949.43l-10.33,1.37h-.04c-2.87,.38-4.89,3.01-4.51,5.88,.38,2.87,3.01,4.89,5.88,4.51h0l10.44-1.37c2.87-.38,4.9-3.01,4.52-5.88-.38-2.87-3.01-4.9-5.88-4.52h-.08Z"/>
      <path id="Path_523" data-name="Path 523" class="cls-4" d="M907.93,953.56l-10.37,1h-.06c-2.87,.27-4.97,2.82-4.7,5.69s2.82,4.97,5.69,4.7l10.49-1c2.87-.33,4.92-2.92,4.59-5.79-.32-2.79-2.78-4.82-5.58-4.61h-.06Z"/>
      <path id="Path_524" data-name="Path 524" class="cls-4" d="M873.34,956.45l-10.4,.64h-.06c-2.86,.25-4.97,2.76-4.73,5.62,.24,2.75,2.59,4.84,5.35,4.74l10.51-.62c2.86-.17,5.05-2.63,4.87-5.5s-2.63-5.05-5.5-4.87h-.05Z"/>
      <path id="Path_525" data-name="Path 525" class="cls-4" d="M838.66,958.14l-10.41,.26h-.06c-2.85,.07-5.1,2.44-5.03,5.29,.07,2.85,2.44,5.1,5.29,5.03l10.53-.25c2.85-.02,5.15-2.36,5.12-5.21-.02-2.85-2.36-5.15-5.21-5.12-.06,0-.11,0-.17,0h-.07Z"/>
      <path id="Path_526" data-name="Path 526" class="cls-4" d="M803.95,958.6l-10.43-.1h-.06c-2.83,.05-5.09,2.39-5.04,5.22,.05,2.72,2.22,4.93,4.94,5.04l10.54,.12c2.84,.03,5.17-2.24,5.21-5.08s-2.24-5.17-5.08-5.21h-.08Z"/>
      <path id="Path_527" data-name="Path 527" class="cls-4" d="M769.23,957.82l-10.41-.47h-.04c-2.82-.07-5.17,2.16-5.23,4.98-.07,2.74,2.03,5.04,4.76,5.22l10.53,.49c2.82,.13,5.22-2.05,5.35-4.87,.13-2.82-2.05-5.22-4.87-5.35h-.07Z"/>
      <path id="Path_528" data-name="Path 528" class="cls-4" d="M734.56,955.82l-10.39-.84h-.06c-2.79-.29-5.28,1.74-5.57,4.53-.29,2.79,1.74,5.29,4.53,5.57,.07,0,.15,.01,.22,.02l10.5,.86c2.8,.26,5.28-1.8,5.54-4.6,.26-2.8-1.8-5.28-4.6-5.54-.03,0-.06,0-.09,0h-.08Z"/>
      <path id="Path_529" data-name="Path 529" class="cls-4" d="M699.99,952.64l-10.34-1.2h-.06c-2.77-.33-5.28,1.66-5.61,4.43-.33,2.77,1.66,5.28,4.43,5.61l10.45,1.23c2.77,.35,5.3-1.62,5.65-4.4,.34-2.77-1.62-5.3-4.4-5.65-.02,0-.04,0-.06,0h-.07Z"/>
      <path id="Path_530" data-name="Path 530" class="cls-4" d="M665.55,948.15l-10.3-1.58h-.06c-2.76-.35-5.27,1.6-5.62,4.36-.34,2.66,1.47,5.11,4.1,5.59l10.4,1.61c2.76,.33,5.27-1.64,5.6-4.41,.31-2.63-1.46-5.06-4.07-5.55h-.05Z"/>
      <path id="Path_531" data-name="Path 531" class="cls-4" d="M631.29,942.47l-10.23-1.95h-.06c-2.72-.52-5.34,1.26-5.86,3.97s1.26,5.34,3.97,5.86h0l10.33,1.98c2.72,.52,5.35-1.26,5.87-3.97s-1.26-5.35-3.97-5.87h-.05Z"/>
      <path id="Path_532" data-name="Path 532" class="cls-4" d="M597.27,935.55l-10.15-2.31h-.06c-2.66-.69-5.38,.92-6.07,3.58-.69,2.66,.92,5.38,3.58,6.07,.08,.02,.17,.04,.25,.06l10.26,2.36c2.71,.5,5.31-1.28,5.81-3.99,.47-2.54-1.08-5.03-3.57-5.72h-.06v-.04Z"/>
      <path id="Path_533" data-name="Path 533" class="cls-4" d="M563.54,927.4l-10.05-2.69h-.06c-2.62-.76-5.37,.75-6.13,3.38s.75,5.37,3.38,6.13c.06,.02,.12,.03,.18,.05l10.15,2.73c2.65,.71,5.37-.86,6.08-3.5s-.86-5.37-3.5-6.08h-.05Z"/>
      <path id="Path_534" data-name="Path 534" class="cls-4" d="M530.13,918l-9.94-3.06h-.06c-2.58-.86-5.37,.53-6.24,3.11-.86,2.58,.53,5.37,3.11,6.24,.07,.02,.14,.05,.22,.07l10.05,3.09c2.63,.74,5.35-.79,6.09-3.42,.71-2.53-.68-5.17-3.17-6.01h-.06v-.02Z"/>
      <path id="Path_535" data-name="Path 535" class="cls-4" d="M497.12,907.39l-9.82-3.43h-.06c-2.55-.9-5.34,.43-6.25,2.98s.43,5.34,2.98,6.25c0,0,.02,0,.02,0l9.93,3.48c2.54,.95,5.37-.34,6.32-2.88s-.34-5.37-2.88-6.32c-.06-.02-.12-.04-.19-.07h-.07Z"/>
      <path id="Path_536" data-name="Path 536" class="cls-4" d="M464.5,895.53l-9.68-3.8h-.06c-2.5-.99-5.33,.24-6.32,2.74-.99,2.5,.24,5.33,2.74,6.31l9.77,3.85c2.51,.99,5.35-.24,6.34-2.76s-.24-5.35-2.76-6.34h0l-.06-.03v.02Z"/>
      <path id="Path_537" data-name="Path 537" class="cls-4" d="M432.38,882.43l-9.51-4.18-.06-.03c-2.48-1.03-5.32,.15-6.34,2.62-1,2.41,.08,5.18,2.45,6.27l9.62,4.22c2.46,1.08,5.32-.04,6.4-2.49,1.08-2.46-.04-5.32-2.49-6.4h0l-.08-.02Z"/>
      <path id="Path_538" data-name="Path 538" class="cls-4" d="M400.8,868.1l-9.36-4.54-.06-.03c-2.4-1.17-5.29-.17-6.45,2.23-1.17,2.4-.17,5.29,2.23,6.45l9.46,4.6c2.5,.97,5.31-.27,6.28-2.77,.86-2.21,0-4.72-2.04-5.93h0l-.06-.03h0Z"/>
      <path id="Path_539" data-name="Path 539" class="cls-4" d="M369.79,852.54l-9.18-4.9-.06-.03c-2.34-1.25-5.24-.37-6.49,1.97s-.37,5.24,1.97,6.49l9.27,4.97c2.34,1.25,5.26,.37,6.51-1.97,1.25-2.34,.37-5.26-1.97-6.51h0l-.04-.03Z"/>
      <path id="Path_540" data-name="Path 540" class="cls-4" d="M339.45,835.76l-8.92-5.32-.07-.04c-2.3-1.3-5.22-.49-6.52,1.81-1.26,2.22-.55,5.05,1.62,6.41l9.06,5.41c2.27,1.36,5.21,.62,6.56-1.65,1.36-2.27,.62-5.21-1.65-6.56h0l-.07-.04v-.02Z"/>
      <path id="Path_541" data-name="Path 541" class="cls-4" d="M310.09,817.42l-8.56-5.86-.08-.06c-2.12-1.55-5.09-1.09-6.64,1.03-1.55,2.12-1.09,5.09,1.03,6.64,.08,.06,.15,.11,.23,.16l8.71,5.98c2.14,1.52,5.12,1.02,6.64-1.12,1.52-2.14,1.02-5.12-1.12-6.64-.04-.03-.09-.06-.13-.09h0l-.08-.06h0Z"/>
      <path id="Path_542" data-name="Path 542" class="cls-4" d="M282.15,797.17l-8.03-6.51-.1-.08c-1.97-1.71-4.95-1.49-6.66,.48-1.71,1.97-1.49,4.95,.48,6.66,.07,.06,.15,.12,.22,.18l8.23,6.69c2.03,1.65,5.01,1.34,6.66-.69,1.65-2.03,1.34-5.01-.69-6.66h0l-.1-.08h-.02Z"/>
      <path id="Path_543" data-name="Path 543" class="cls-4" d="M256.16,774.61l-7.3-7.25-.11-.11c-1.74-1.92-4.71-2.07-6.63-.33s-2.07,4.71-.33,6.63c.1,.11,.21,.22,.32,.32l7.5,7.5c1.84,1.84,4.82,1.84,6.66,0,1.84-1.84,1.84-4.82,0-6.66h0l-.11-.11h0Z"/>
      <path id="Path_544" data-name="Path 544" class="cls-4" d="M232.92,749.38l-6.29-8.1-.12-.15c-1.58-2.04-4.52-2.41-6.56-.82-2.04,1.58-2.41,4.52-.82,6.56h0l6.52,8.43c1.58,2.05,4.53,2.42,6.57,.84,2.05-1.58,2.42-4.53,.84-6.57h0l-.12-.17h-.01Z"/>
      <path id="Path_545" data-name="Path 545" class="cls-4" d="M213.42,721.35l-4.96-8.96-.11-.21c-1.2-2.27-4.01-3.14-6.28-1.94-2.27,1.2-3.14,4.01-1.94,6.28,.03,.06,.06,.11,.09,.16l5.17,9.36c1.32,2.21,4.18,2.93,6.39,1.61,2.11-1.26,2.88-3.93,1.77-6.12h0l-.11-.21h-.01Z"/>
      <path id="Path_546" data-name="Path 546" class="cls-4" d="M198.74,690.63c-1.22-3.19-2.21-6.44-3.3-9.65l-.1-.28c-.91-2.39-3.57-3.59-5.96-2.68-2.28,.86-3.49,3.34-2.78,5.67,1.15,3.39,2.21,6.84,3.45,10.18l.03,.07c.87,2.4,3.52,3.65,5.92,2.78s3.65-3.52,2.78-5.92c-.02-.05-.04-.1-.06-.15h0l.02-.02Z"/>
      <path id="Path_547" data-name="Path 547" class="cls-4" d="M190.1,657.83l-1.29-10.11-.03-.26c-.29-2.52-2.56-4.33-5.08-4.04s-4.33,2.56-4.04,5.08c0,.04,.01,.08,.02,.12l1.32,10.65c.32,2.52,2.62,4.31,5.14,3.99s4.31-2.62,3.99-5.14h0l-.03-.28h0Z"/>
      <path id="Path_548" data-name="Path 548" class="cls-4" d="M188.06,623.92l.64-10.19v-.25c.23-2.51-1.62-4.73-4.13-4.96-2.51-.23-4.74,1.62-4.97,4.13,0,.08-.01,.17-.02,.25l-.68,10.69c-.09,2.53,1.88,4.65,4.41,4.74,2.43,.09,4.51-1.74,4.73-4.16h0v-.26l.02,.02Z"/>
      <path id="Path_549" data-name="Path 549" class="cls-4" d="M192.27,590.13l2.38-9.96,.06-.22c.59-2.44-.91-4.89-3.35-5.48-2.44-.59-4.89,.91-5.48,3.35h0l-2.51,10.4c-.52,2.46,1.06,4.88,3.52,5.4,2.36,.5,4.69-.93,5.33-3.25h0l.06-.22v-.02Z"/>
      <path id="Path_550" data-name="Path 550" class="cls-4" d="M202.11,557.46l3.97-9.46,.08-.19c.94-2.31-.16-4.95-2.47-5.89-2.28-.93-4.89,.14-5.86,2.4l-4.14,9.85c-1,2.29,.06,4.96,2.35,5.96,2.29,1,4.96-.06,5.96-2.35,.01-.03,.03-.07,.04-.1h0l.07-.21Z"/>
      <path id="Path_551" data-name="Path 551" class="cls-4" d="M216.98,526.73l5.38-8.76,.11-.18c1.35-2.08,.77-4.86-1.31-6.22s-4.86-.77-6.22,1.31c-.04,.07-.09,.14-.13,.21l-5.6,9.1c-1.3,2.12-.64,4.89,1.48,6.19,2.12,1.3,4.89,.64,6.19-1.48h0l.11-.18h-.02Z"/>
      <path id="Path_552" data-name="Path 552" class="cls-4" d="M236.36,498.55l6.62-7.85,.14-.15c1.58-1.87,1.36-4.66-.51-6.25s-4.66-1.36-6.25,.51l-6.91,8.13c-1.65,1.83-1.5,4.64,.32,6.29,1.83,1.65,4.64,1.5,6.29-.32,.06-.07,.12-.14,.18-.21h0l.12-.17v.02Z"/>
      <path id="Path_553" data-name="Path 553" class="cls-4" d="M259.76,473.65l7.73-6.73,.15-.14c1.83-1.57,2.04-4.33,.46-6.16-1.57-1.83-4.33-2.04-6.16-.46h0l-8.1,6.96c-1.78,1.64-1.9,4.41-.27,6.19,1.56,1.7,4.17,1.9,5.97,.45h0l.15-.15,.05,.03Z"/>
      <path id="Path_554" data-name="Path 554" class="cls-4" d="M286.81,452.78l8.74-5.33,.19-.11c1.98-1.29,2.54-3.94,1.25-5.92-1.23-1.89-3.72-2.5-5.69-1.39l-9.13,5.53c-2.04,1.23-2.69,3.88-1.45,5.92,1.23,2.04,3.88,2.69,5.92,1.45h0l.19-.12-.02-.02Z"/>
      <path id="Path_555" data-name="Path 555" class="cls-4" d="M316.93,436.82l9.53-3.7,.22-.08c2.14-.91,3.14-3.38,2.24-5.52-.87-2.05-3.17-3.07-5.27-2.33l-9.99,3.83c-2.21,.77-3.37,3.19-2.6,5.4s3.19,3.37,5.4,2.6c.08-.03,.16-.06,.23-.09h0l.22-.1h.02Z"/>
      <path id="Path_556" data-name="Path 556" class="cls-4" d="M349.45,426.51l10.07-1.99,.21-.04c2.23-.49,3.64-2.69,3.16-4.92-.47-2.16-2.56-3.57-4.74-3.19l-10.49,2.02c-2.26,.44-3.73,2.62-3.3,4.88,.44,2.26,2.62,3.73,4.88,3.3h0l.21-.04h0Z"/>
      <path id="Path_557" data-name="Path 557" class="cls-4" d="M383.29,421.81l10.27-.34h.19c2.24-.1,3.98-1.99,3.88-4.23-.09-2.2-1.93-3.93-4.13-3.89l-10.65,.3c-2.25-.02-4.1,1.79-4.11,4.05-.02,2.25,1.79,4.1,4.05,4.11,.1,0,.2,0,.3,0h.2Z"/>
      <path id="Path_558" data-name="Path 558" class="cls-4" d="M417.53,422.53l10.22,1.22,.18,.03c2.19,.27,4.19-1.29,4.46-3.49,.27-2.19-1.29-4.19-3.49-4.46h0l-10.56-1.3c-2.21-.12-4.1,1.57-4.23,3.79-.11,2,1.27,3.78,3.24,4.16h0l.18,.03v.03Z"/>
      <path id="Path_559" data-name="Path 559" class="cls-4" d="M451.33,428.31l9.96,2.65,.15,.04c2.1,.49,4.21-.81,4.7-2.91,.47-2.01-.7-4.03-2.67-4.63l-10.26-2.8c-2.1-.57-4.27,.66-4.84,2.76-.57,2.1,.66,4.27,2.76,4.84h0l.15,.04h.04Z"/>
      <path id="Path_560" data-name="Path 560" class="cls-4" d="M484.04,438.76l9.51,3.97,.14,.06c2,.7,4.19-.36,4.89-2.36,.64-1.83-.18-3.84-1.91-4.7l-9.78-4.14c-1.96-.83-4.23,.09-5.06,2.05-.83,1.96,.09,4.23,2.05,5.06h0l.14,.07h.02Z"/>
      <path id="Path_561" data-name="Path 561" class="cls-4" d="M515.08,453.49l8.92,5.21,.12,.07c1.79,1.05,4.1,.44,5.15-1.35,1.05-1.79,.44-4.1-1.35-5.15l-9.15-5.39c-1.8-1.06-4.12-.46-5.18,1.34-1.06,1.8-.46,4.12,1.34,5.18h0l.12,.08h.03Z"/>
      <path id="Path_562" data-name="Path 562" class="cls-4" d="M543.96,472.17l8.17,6.33,.11,.1c1.61,1.25,3.92,.96,5.17-.64s.96-3.92-.64-5.17l-8.38-6.55c-1.65-1.21-3.98-.85-5.19,.8-1.16,1.58-.89,3.79,.62,5.04h0l.11,.1h.04Z"/>
      <path id="Path_563" data-name="Path 563" class="cls-4" d="M570.13,494.49l7.24,7.37,.11,.11c1.44,1.38,3.73,1.32,5.11-.12,1.31-1.37,1.33-3.53,.05-4.93l-7.42-7.62c-1.4-1.44-3.7-1.47-5.14-.07s-1.47,3.7-.07,5.14h0l.11,.12Z"/>
      <path id="Path_564" data-name="Path 564" class="cls-4" d="M593.01,520.15l6.13,8.3,.1,.12c1.16,1.57,3.37,1.91,4.94,.75,1.57-1.16,1.91-3.37,.75-4.94l-6.28-8.57c-1.22-1.54-3.46-1.79-5-.57-1.45,1.15-1.77,3.23-.74,4.77h0l.09,.14Z"/>
    </g>
    <g id="Group_326" data-name="Group 326">
      <g id="Group_320" data-name="Group 320">
        <rect id="Rectangle_125" data-name="Rectangle 125" class="cls-39" x="2068.01" y="1686.66" width="18.61" height="201.28"/>
        <path id="Path_565" data-name="Path 565" class="cls-39" d="M2158.81,1891.83h-163.02v-8.7c0-1.89,1.53-3.42,3.42-3.42h155.93c2.04,0,3.68,1.65,3.68,3.68v8.43h-.01Z"/>
        <path id="Rectangle_126" data-name="Rectangle 126" class="cls-39" d="M2002.71,1638.73h156.05c17.06,0,30.89,13.83,30.89,30.89h0c0,17.06-13.83,30.89-30.89,30.89h-156.05c-17.06,0-30.89-13.83-30.89-30.89h0c0-17.06,13.83-30.89,30.89-30.89Z"/>
      </g>
      <g id="Group_322" data-name="Group 322">
        <path id="Path_566" data-name="Path 566" class="cls-66" d="M1912.31,1826.8s-60.17,25.91-56.73,53.04c0,0,62.2-11.92,73.33-29.7,11.13-17.79,5-28.07,5-28.07l-21.61,4.73Z"/>
        <path id="Path_567" data-name="Path 567" class="cls-31" d="M1927.05,1797.19l3.06,26.41c.51,3.99-1.77,7.82-5.52,9.27-2.45,.82-5.03,1.21-7.62,1.17-4.59,.04-8.65-3-9.89-7.42l-5.91-21.35,25.9-8.08h0Z"/>
        <path id="Path_568" data-name="Path 568" class="cls-14" d="M2058.5,1594.68s-110.67-5.12-165.75,26.99c-55.08,32.11,2.8,186.25,2.8,186.25,0,0,14.39,3.09,35.09-7.97,0,0-29.57-112.84,21.79-132.47,57.72-22.07,117.44-16.7,117.44-16.7l-11.06-52.61-.3-3.49h0Z"/>
        <path id="Path_569" data-name="Path 569" class="cls-43" d="M1867.69,1867.95c12.59-2.76,49.9-18.23,55.58-18.02,5.68,.21,13.68,8.7,13.68,8.7,.66,3.97-.3,8.04-2.67,11.3-9.61,7.5-30.33,21.26-54.41,22.77-12.88,1.51-25.7-3.25-34.47-12.8,6.26-5.87,13.94-10,22.28-11.99v.04Z"/>
        <path id="Path_570" data-name="Path 570" class="cls-61" d="M1879.88,1892.71c24.08-1.51,44.79-15.27,54.41-22.77-4.51,6.58-10.63,11.9-17.77,15.47-24.33,13.75-64.56,11.74-72.53,8.65-6.39-2.48-4.41-8.45,1.43-14.12,8.77,9.55,21.59,14.31,34.47,12.8v-.03Z"/>
        <path id="Path_571" data-name="Path 571" class="cls-8" d="M1950.17,1844.82c-.83,3.12-9.64,12.48-14.74,17.7-2.42,2.48-5.94,3.54-9.32,2.81-2.32-.47-4.57-1.26-6.68-2.34-3.14-1.75-4.27-5.71-2.52-8.85l12.89-23.43,20.36,14.12h0Z"/>
        <path id="Path_572" data-name="Path 572" class="cls-75" d="M2168.19,1585.4s9.66,68.54-18.27,82.52c-27.93,13.98-89.2,23.18-110.3,58.72-21.09,35.54-59,105.31-93.49,125.36,0,0-19.7-6.41-25.45-16.09,0,0,40.94-107.62,58.01-133.77,14.79-22.66,36.42-55.29,67.14-69.4,8.8-4.05,9.49-13.38,7.94-22.92l-2.82-17.4,117.23-7.03h0Z"/>
        <path id="Path_573" data-name="Path 573" class="cls-50" d="M1909.31,1507.71c39.17,11.17,56.69-99.03,56.53-101.71l60.02,70.2s-35.77,62.94-89.8,69.65c-11.93,1.63-24.08-.15-35.04-5.14,6.11-9.88,9.01-21.41,8.29-33Z"/>
        <path id="Path_574" data-name="Path 574" class="cls-78" d="M1836.78,1471.63c17.06-7.01,31.55,6.98,31.55,6.98,16.91,17.31,30.33,26.04,40.98,29.08,.72,11.59-2.17,23.12-8.27,33-21.1-9.66-33.4-29.21-38.46-38.96-1.81-3.52-6.09-4.97-9.66-3.27-3.61,1.77-7.34,4.41-7.58,8.04-.44,7.14-8.96,7.58-9.02,4.93,1.71-5.77,3.92-11.38,6.59-16.77,0,0-19.61,12.57-27.24,17.39-7.63,4.82-14.12-3.13-14.12-3.13,0,0,18.2-30.3,35.26-37.31h-.03Z"/>
        <path id="Path_575" data-name="Path 575" class="cls-77" d="M2153.09,1360.65s-52.63-35.9-179.72,29.03c0,0-13.08,16.59-6.95,35.3,6.13,18.71,81.6,119.93,84.52,167.45,0,0,51.59,30.37,118.55,.27,0,0,22.45-125.49-16.4-232.04h0Z"/>
        <path id="Path_576" data-name="Path 576" class="cls-24" d="M2043.52,1314.75l20.8,40.75c2.08,4.04,1.61,8.92-1.2,12.49-5.74,7.18-17.69,16.81-38.08,10.59-6.07-1.85-10.71-6.78-12.17-12.96l-10.78-45.48,41.43-5.38Z"/>
        <path id="Path_577" data-name="Path 577" class="cls-35" d="M2192.06,1502.95c3.56-24.77-61.89-72.78-61.89-72.78l22.92-69.51s124.89,89.14,98.63,161.94c-3.07,9.2-8.7,17.33-16.23,23.43-13.24-27.13-31.16-38.39-43.44-43.05v-.03Z"/>
        <path id="Path_578" data-name="Path 578" class="cls-27" d="M2100.75,1509.83s74.05,20.68,89.41-1.85c1.01-1.5,1.67-3.22,1.91-5.01,12.27,4.67,30.2,15.94,43.45,43.06-35.16,27.66-102.94-3.35-121.36-12.64-3.02-1.53-6.52-1.82-9.75-.82-7.81,2.74-15.96,4.37-24.22,4.85-9.27-.51-19.18,32.93-34.93,24.46,0,0,7.16-57.13,55.51-52.07v.03Z"/>
        <g id="Group_321" data-name="Group 321">
          <path id="Path_579" data-name="Path 579" class="cls-3" d="M2016.86,1248.15c-.67,.57-28.08,48.49-42.06,72.9-3.94,6.89-1.54,15.66,5.34,19.59,.48,.27,.98,.52,1.48,.74l6.05,2.59c8.27,3.53,26.04,6.51,33.03,.86l44.09-46.54s-33.13-62.97-47.96-50.13h.02Z"/>
          <path id="Path_580" data-name="Path 580" class="cls-15" d="M2077.24,1285.6c7.23-3.07,10.61-11.41,7.55-18.65-.21-.49-.44-.97-.71-1.43-3.84-8.33-12.85-12.99-21.87-11.32-2.64,.26-5.09-1.4-5.82-3.95-.51-1.73-2.04-2.95-3.84-3.09-2.93-.52-4.89-3.32-4.36-6.25,.03-.17,.07-.34,.11-.5,2.47-7.65-.99-15.96-8.16-19.6-16.77-10.15-32.48,4.6-36.84,17.44-4.36,12.84,14.46,22.81,26.48,24.85,9.14,1.55,13.6,12.09,15.21,17.05,.51,1.57,.27,3.29-.64,4.67l-13.41,20.37c3.68,4.64,6.96,9.54,10.18,14.5,1.2-1.3,2.26-2.38,3.09-3.13,5.82-5.33,16.17-2.58,20.44-1.12,1.39,.48,2.93,.37,4.24-.3,4.64-2.4,14.02-9.14,6.33-21.89-1.57-2.59-.74-5.96,1.85-7.53,.06-.04,.12-.07,.18-.1h-.02Z"/>
          <path id="Path_581" data-name="Path 581" class="cls-21" d="M2036.25,1328.4s8.57-22.03,18.32-20.8,17.03,11.29,4.46,21.73c-15.64,12.99-22.77-.93-22.77-.93h-.01Z"/>
        </g>
      </g>
      <g id="Group_323" data-name="Group 323">
        <path id="Path_582" data-name="Path 582" class="cls-49" d="M2006.2,1556.97h-.4l-172.99-.19c-4.28,0-7.74-3.48-7.73-7.76,0-4.28,3.48-7.74,7.76-7.73l172.99,.19c4.28-.1,7.83,3.28,7.93,7.56,.1,4.28-3.28,7.83-7.56,7.93Z"/>
        <path id="Path_583" data-name="Path 583" class="cls-51" d="M1677.31,1399.91h144.05c10.63,0,20.3,6.13,24.83,15.75l66.6,141.22h-179.04c-6.85,0-13.01-4.18-15.52-10.55l-51.63-130.68c-2.33-5.91,.56-12.59,6.47-14.93,1.35-.53,2.78-.81,4.23-.8h0Z"/>
      </g>
      <g id="Group_325" data-name="Group 325">
        <g id="Group_324" data-name="Group 324">
          <path id="Path_584" data-name="Path 584" class="cls-33" d="M1700.66,1927.99c-.99,0-1.96-.19-2.87-.58-3.58-1.43-5.32-5.48-3.9-9.06,.03-.07,.06-.14,.09-.21l152.45-343.11c1.67-3.61,5.9-5.24,9.55-3.68,3.58,1.43,5.32,5.48,3.9,9.06-.03,.07-.06,.14-.09,.21l-152.45,343.11c-1.19,2.61-3.81,4.28-6.68,4.26h0Z"/>
          <path id="Path_585" data-name="Path 585" class="cls-33" d="M1872.41,1927.99c-2.87,.02-5.49-1.65-6.67-4.27l-152.45-343.11c-1.55-3.51,.05-7.62,3.56-9.16,.08-.04,.17-.07,.25-.1,3.66-1.55,7.88,.08,9.55,3.68l152.45,343.11c1.55,3.51-.05,7.62-3.56,9.16-.08,.04-.17,.07-.25,.1-.91,.38-1.88,.58-2.87,.58h-.01Z"/>
          <path id="Path_586" data-name="Path 586" class="cls-33" d="M2172.58,1927.99c-.99,0-1.96-.19-2.87-.58-3.58-1.43-5.32-5.48-3.9-9.06,.03-.07,.06-.14,.09-.21l152.45-343.11c1.67-3.6,5.9-5.24,9.55-3.68,3.58,1.43,5.32,5.48,3.9,9.06-.03,.07-.06,.14-.09,.21l-152.45,343.11c-1.19,2.61-3.8,4.28-6.67,4.26h-.01Z"/>
          <path id="Path_587" data-name="Path 587" class="cls-33" d="M2344.32,1927.99c-2.87,.02-5.49-1.65-6.68-4.27l-152.45-343.11c-1.55-3.51,.05-7.62,3.56-9.16,.08-.04,.17-.07,.25-.1,3.66-1.55,7.88,.08,9.55,3.68l152.45,343.11c1.55,3.51-.05,7.62-3.56,9.16-.08,.04-.17,.07-.25,.1-.91,.38-1.88,.58-2.87,.58h0Z"/>
        </g>
        <path id="Path_588" data-name="Path 588" class="cls-33" d="M2362.21,1564.46c.4-2.22-.12-4.51-1.44-6.34-1.21-1.73-3.18-2.77-5.3-2.8h-693.55c-2.79,.06-5.33,1.62-6.65,4.07-1.46,2.59-1.65,5.71-.51,8.46l7.5,18.21c1.5,4.01,5.27,6.72,9.55,6.84h678.9c4.02-.18,7.33-3.23,7.82-7.23l3.67-21.23h0Z"/>
      </g>
    </g>
    <g id="Group_327" data-name="Group 327">
      <path id="Path_589" data-name="Path 589" class="cls-33" d="M2523.34,1821.24c71.74,14.35,163.35-63.87,192.85-149.32,30.37-87.93-25.32-124.77-24.89-246.79,.49-138.61,72.59-159.5,120.28-346.32,10.76-42.16,73.03-286.09-4.14-331.81-71.36-42.28-271.8,79.05-306.92,234.33-25.05,110.72,52.39,157.23,22.81,286.19-25.95,113.16-94.14,114.79-120.28,223.98-31.8,132.91,26.1,310.91,120.29,329.73Z"/>
      <path id="Path_590" data-name="Path 590" class="cls-39" d="M2528.55,1854.81c-19.33-149.33,18.39-379.73,53.44-546.71,37.95-180.78,81.03-328.25,81.46-329.72l5.97,1.77c-.44,1.47-43.44,148.72-81.35,329.29-34.96,166.49-72.58,396.12-53.34,544.6l-6.18,.8v-.02Z"/>
    </g>
    <g id="Group_328" data-name="Group 328">
      <path id="Path_591" data-name="Path 591" class="cls-69" d="M2568.14,1804.56c-94.1-49.02-126.32-217.4-72.82-272.12,36.15-36.98,87.97,1.91,137.98-36.41,63.84-48.93,16.88-141.09,67.08-260.63,42.71-101.72,145.19-197.97,205.05-178.22,62.67,20.68,95.68,174.07,42.16,266.37-34.8,60.02-88.09,62.98-99.66,118.81-13.41,64.79,51.39,94.32,51.74,157.14,.64,112.83-207.04,269.91-331.53,205.05h0Z"/>
      <path id="Path_592" data-name="Path 592" class="cls-33" d="M2618.93,1847.67c-2.12,0-3.83-1.72-3.83-3.84,0-.58,.13-1.15,.39-1.67,124.75-257.06,161.34-555.3,161.68-558.28,.24-2.1,2.14-3.6,4.24-3.36s3.6,2.14,3.36,4.24c-.36,2.99-37.1,302.5-162.4,560.72-.64,1.32-1.98,2.17-3.45,2.16v.03Z"/>
      <path id="Path_593" data-name="Path 593" class="cls-13" d="M2874.87,1361.12c-.41,0-.8-.14-1.12-.39-.8-.62-.94-1.77-.32-2.57,0,0,0,0,0,0,39.37-50.55,83.03-126.48,67.31-201.21-4.92-25.74-17.44-49.41-35.95-67.96-.76-.67-.85-1.82-.18-2.59,.66-.77,1.83-.85,2.59-.18,1.12,.97,27.53,24.27,37.14,69.96,8.83,42,4.2,111.54-68.01,204.22-.35,.44-.88,.7-1.44,.71v.02Z"/>
      <path id="Path_594" data-name="Path 594" class="cls-2" d="M2559.66,1782.11c-.6,0-1.17-.29-1.51-.79-60.52-88.31-81.16-156.56-61.34-202.83,17.62-41.13,62.11-48.79,62.56-48.87,1-.16,1.94,.51,2.11,1.51,.16,1-.51,1.94-1.51,2.11h0c-.44,.07-42.99,7.45-59.78,46.74-19.26,45.03,1.28,112.09,61.01,199.27,.57,.83,.36,1.97-.47,2.55-.3,.21-.67,.32-1.04,.32h-.01Z"/>
    </g>
    <g id="Group_331" data-name="Group 331">
      <path id="Path_595" data-name="Path 595" class="cls-76" d="M2322.08,1170.89s-20.8-50.98,57.67-40.7c78.47,10.28,59.4,39.9,65.6,63.05,6.2,23.16,39.12,49.39,130.73,85.1,91.61,35.71,64.45,133.09,23.29,165.41-41.16,32.33-63.58,10.84-73.16,66.64-9.59,55.79-47.75,101.08-95.38,53.8-47.63-47.28-101.78-103.2-86.62-176.52,15.15-73.32-2.01-59.45-31.56-93.09-29.55-33.64,33.1-66.2,9.44-123.67v-.02Z"/>
      <path id="Path_596" data-name="Path 596" class="cls-10" d="M2192.06,1150.23s79.08,111.5,167,129.16c0,0-14.33,49.04-27.09,55.24,0,0-111.44-83.36-143.42-167.77l3.53-16.63h-.02Z"/>
      <path id="Path_597" data-name="Path 597" class="cls-34" d="M2549.91,1872.61l2.37,19.46c.44,3.7,9.21,13.07,12.91,13.49,6.15,1.36,12.47,1.72,18.74,1.09,4.29-.44,8.54-11.95,7.23-16.06-2.58-9.28-7.02-17.93-13.06-25.43h-21.59c-3.67,0-6.66,2.96-6.67,6.63,0,.27,.02,.55,.05,.82h.03Z"/>
      <path id="Path_598" data-name="Path 598" class="cls-22" d="M2380.82,1644.63l-3.64,21.44s12.2,123.6,14.38,173.04c.34,7.75-1.66,15.42-5.74,22.02l-21.21,34.46,53.93-31.83,1.08-6.58-8.83-12.13,11.57-138.46c.67-8.14-1.01-16.29-4.85-23.5l-11.15-20.95-25.53-17.49v-.02Z"/>
      <path id="Path_599" data-name="Path 599" class="cls-40" d="M2361.05,1900.57h17.21c3.22,0,6.26-1.48,8.23-4.03,5.36-6.96,16.48-20.56,21.8-20.93,7.16-.49,6.24,24.96,6.24,24.96h4.02l5.08-31.6c1.28-7.95-2.68-15.83-9.82-19.55-1.03,6.98-4.81,13.26-10.5,17.45-8.86,5.34-36.09,24.51-36.09,24.51-2.33-.27-4.68-.21-6.99,.18-2.47,.45-4.1,2.82-3.65,5.29,.4,2.17,2.29,3.73,4.49,3.72h-.03Z"/>
      <path id="Path_600" data-name="Path 600" class="cls-42" d="M2454.68,1654.81s71.49,135.61,82.85,166.56c7.19,19.16,12.39,39.01,15.5,59.23,.23,3.82,4.99,7.5,18.09,7.5,4.58,.5,9.06-1.55,11.69-5.33,1.37-2.25,1.48-5.05,.29-7.4-4.14-8.38-17.26-35.11-22.12-47.22-5.8-14.48-18.28-80.11-25.15-102.94-6.87-22.82-14.56-47.57-44.4-70.38,0,0-20.47-20.04-36.78,0l.04-.03Z"/>
      <path id="Path_601" data-name="Path 601" class="cls-28" d="M2409.52,1432.62c-18.45-78.14,28.28-122.33,28.28-122.33-29.47-28.29-83.18-41.17-83.18-41.17,0,0-51.24,37.46-45.16,66.79,3.56,17.18,36.02,102.95,36.02,102.95,21.13,8.22,44.91,5.9,64.05-6.24h0Z"/>
      <path id="Path_602" data-name="Path 602" class="cls-48" d="M2450.4,1471.3c-7.5-22.6-40.88-38.68-40.88-38.68-19.14,12.14-42.92,14.46-64.05,6.24-3.92,16.25-4.63,33.11-2.09,49.63,4.64,23.91,33.79,177.57,33.79,177.57,45.92,9.31,116.55-9.36,116.55-9.36-29.25-51.93-35.83-162.79-43.33-185.4h.01Z"/>
      <path id="Path_603" data-name="Path 603" class="cls-53" d="M2388.12,1217.47l15,67.35c1.44,5.93-3.97,4.96-9.97,3.84-9.82-1.86-22.48-5.67-26.71-13.31-.41-.79-.67-1.65-.76-2.53l-6.44-46.7c-.52-3.71,1.49-7.31,4.92-8.83l12.42-5.51c4.23-1.88,9.19,.03,11.06,4.27,.2,.46,.37,.94,.48,1.43h0Z"/>
      <path id="Path_604" data-name="Path 604" class="cls-56" d="M2437.8,1310.29s104.64,74.87,13.38,153.53c-2.87,2.85-6.43,4.91-10.33,5.98-6.7,3.62-13.02,7.91-18.86,12.8-1.53,1.21-3.75,.94-4.96-.59-.09-.11-.16-.22-.24-.34-.88-1.4-.98-3.16-.28-4.66l12.95-27.39c3.6-3.36,9.1-3.6,12.97-.57,2.14,1.69,5.24,1.32,6.93-.82,.21-.27,.4-.56,.55-.87,7.06-14.36,20.37-56.63-34.15-104.38-2.04-1.8-2.59-4.76-1.32-7.18,3.84-7.35,12.59-21.98,23.32-25.53h.04Z"/>
      <path id="Path_605" data-name="Path 605" class="cls-29" d="M2370.52,1153.36s-17.75,7.5-29.83,33.16-3.06,37.51,8.27,39.14c16.94,2.71,34.15-2.96,46.17-15.19,17.92-16.58-1.54-65.98-24.61-57.09h0Z"/>
      <path id="Path_606" data-name="Path 606" class="cls-41" d="M2383.1,1196.76s13.39-37.55-19.89-37.99l-7.82,5.47s-12.22-20.82,7.82-30.75c20.04-9.93,43.5-1.73,52.03,25.27,8.53,27,9.99,45.08-4.21,58-14.2,12.92-20.04-1.73-20.04-1.73,0,0,7.73-12.09,4.58-18.53-3.14-6.44-10.4,1.32-10.4,1.32l-2.08-1.07Z"/>
      <path id="Path_607" data-name="Path 607" class="cls-11" d="M2381.3,1200.94s6.77-19.33,15.82-11.63c9.04,7.7-7.34,17.86-13.75,21.15l-2.05-9.51h-.01Z"/>
      <g id="Group_329" data-name="Group 329">
        <path id="Path_608" data-name="Path 608" class="cls-54" d="M2193.83,1173.95c-.1,2.4,8.85,3.56,11.12-6.73-1.01-4.36-3.41-23.58-6.95-26.39-18.83-15-51.86-31.26-51.86-31.26-2,2.95-1.28,6.95,1.61,9.03l16.59,9.96c-1.92,5.47-3.09,11.18-3.49,16.96,.09,4.82,2.04,9.41,5.43,12.84,3.38,3.48,7.94,7.94,11.98,11.32,4.27,3.74,10.01,5.32,15.59,4.28h-.02Z"/>
        <path id="Path_609" data-name="Path 609" class="cls-72" d="M2193.24,1151.47l-6.4-8.93-14.5-6.79c-2.11,1.91-2.91,4.35,.88,7.91s12.67,22.33,12.67,22.33l7.34-14.5h0Z"/>
      </g>
      <g id="Group_330" data-name="Group 330" class="cls-30">
        <path id="Path_610" data-name="Path 610" class="cls-39" d="M2478.35,1248.24c.3,0,.57-.19,.67-.47,.12-.37-.08-.76-.44-.88-32.85-11.43-49.05-32.22-45.65-58.54,3.59-27.68-13.83-32.24-14.02-32.28-.38-.09-.77,.14-.86,.53-.09,.38,.14,.77,.53,.86h0c.67,.17,16.35,4.35,12.95,30.71-3.5,27.06,13.03,48.4,46.59,60.06,.07,.03,.15,.04,.23,.04v-.03Z"/>
        <path id="Path_611" data-name="Path 611" class="cls-39" d="M2547.16,1454.68c.12,0,.24-.03,.34-.08,37.63-20.9,59.79-46.16,65.88-75.09,7.94-37.77-15.05-68.61-15.29-68.91-.24-.31-.68-.37-1-.14-.31,.23-.38,.68-.14,.99,0,0,0,0,0,0,.23,.3,22.84,30.66,15.03,67.78-6,28.5-27.92,53.44-65.17,74.14-.34,.19-.47,.62-.28,.96,0,0,0,0,0,0,.12,.23,.36,.37,.62,.36v-.02Z"/>
      </g>
    </g>
  </g>
</svg>