<?xml version="1.0" encoding="UTF-8"?>
<svg id="Layer_1" data-name="Layer 1" xmlns="http://www.w3.org/2000/svg" viewBox="0 0 309.37 182.35">
  <defs>
    <style>
      .cls-1 {
        fill: #FFCC59;
      }

      .cls-2 {
        fill: #FFCC59;
      }

      .cls-3 {
        fill: #FFCC59;
      }

      .cls-4 {
        fill: #FFCC59;
      }

      .cls-5 {
        fill: #FFCC59;
      }

      .cls-6 {
        fill: #FFCC59;
      }
    </style>
  </defs>
  <path class="cls-1" d="M223.91,5.88c0-4.62-1.23-5.82-5.86-5.82-15.36-.01-30.72,0-46.08,0S140.66,.12,125,0c-2.68-.03-3.31,.98-3.01,3.29,.12,.88-.03,1.77,1.01,2.28,1.36,.68,1.48,1.95,1.48,3.32-.02,9.06-.05,18.12,.01,27.18,.02,2.68-1.24,3.82-3.8,3.82-9.07,0-18.15-.01-27.22,0-2.76,0-3.83-1.26-3.79-4.07,.13-8.96,.04-17.92,.05-26.88,.01-3.33,.67-3.99,4.06-4,6.88-.03,13.76-.06,20.65,.02,1.85,.02,2.71-.45,2.72-2.49,0-2.05-.88-2.46-2.72-2.44-8.08,.07-16.16,0-24.24,.04-4.01,.01-5.39,1.34-5.39,5.38-.03,24.59,0,49.18-.05,73.77,0,2.01,.48,2.81,2.65,2.78,9.08-.1,18.16-.1,27.23,0,2.04,.02,2.57-.71,2.5-2.6-.12-3.28,.02-6.57-.05-9.85-.04-1.68,.32-2.58,2.29-2.56,1.91,.02,2.71,.62,2.65,2.59-.1,3.28,.07,6.58-.06,9.86-.08,1.95,.61,2.56,2.56,2.56,23.24-.06,46.48-.05,69.72-.01,1.71,0,2.72-.35,2.47-2.29-.25-1.84,.35-2.67,2.43-2.66,2.03,0,2.72,.75,2.46,2.63-.25,1.92,.74,2.34,2.46,2.33,1.71,0,2.62-.4,2.5-2.33-.12-2.08-.07-4.18-.01-6.27,.05-1.49-.26-2.27-2.03-1.81-2.84,.75-5.73,.62-8.57-.06-1.17-.28-1.7,0-1.72,1.22-.03,2.39-1.8,1.86-3.23,1.9-2.01,.06-1.98-1.4-1.81-2.68,.32-2.52-.78-4.19-2.49-5.98-6.67-6.96-6.56-18.26,.04-25.19,6.97-7.33,18.18-8.02,25.67-1.57,7.52,6.48,9.09,17.67,2.75,25.16-2.94,3.47-3.9,6.82-3.52,11,.13,1.38,.11,2.79,0,4.18-.14,1.77,.46,2.53,2.34,2.42,2.39-.13,4.8-.18,7.18,.01,2.36,.19,2.8-.82,2.79-2.95-.06-24.39-.03-48.78-.05-73.17ZM97.18,44.72c1.85-.03,2.33,.72,2.35,2.45,.03,1.89-.55,2.6-2.52,2.6s-2.72-.72-2.38-2.62c-.42-2.14,.78-2.4,2.55-2.43Zm-.1,12.52c1.68,.15,3.37,.03,5.06,.03,1.48,0,2.97,.05,4.46-.01,1.71-.06,3.04-.09,3.03,2.37,0,2.3-1.01,2.6-2.89,2.54-3.17-.1-6.35-.1-9.52,0-1.8,.06-2.72-.27-2.68-2.39,.03-1.92,.56-2.71,2.54-2.54Zm12.71,15.02c-2.17-.13-4.36-.03-6.54-.03s-4.17-.1-6.24,.03c-2.09,.13-2.47-.92-2.45-2.71,.01-1.65,.36-2.6,2.3-2.56,4.35,.09,8.72,.1,13.07,0,2.12-.04,2.07,1.23,2.11,2.7,.04,1.62-.25,2.68-2.25,2.57Zm-2.37-22.53c-1.94,.11-2.87-.4-2.85-2.61,.02-2.15,1.05-2.39,2.78-2.36,4.06,.07,8.13,.11,12.19-.02,2-.06,2.53,.73,2.53,2.61-.01,1.83-.68,2.47-2.46,2.37-2.08-.1-4.16-.02-6.24-.02s-3.97-.09-5.95,.03Zm11.6,12.42c-.3-.01-.6,0-1.07,0-1.24-.33-3.42,.98-3.56-1.99-.09-2.12,.39-3.28,2.76-2.91,.58,.09,1.2,.05,1.79,.01,1.88-.15,3.2-.01,3.17,2.56-.03,2.51-1.42,2.42-3.09,2.33Zm57.61-9.82c-.03,4.68-2.72,7.32-7.46,7.36-4.98,.04-9.96,.01-14.94,.01s-9.56,.02-14.34,0c-5.16-.03-7.79-2.58-7.81-7.61-.03-6.57-.03-13.13,0-19.69,.02-4.75,2.52-7.54,7.3-7.61,9.96-.15,19.93-.14,29.88,0,4.8,.06,7.34,2.84,7.37,7.56,.04,6.66,.04,13.32,0,19.98Z"/>
  <path class="cls-4" d="M154.57,86.83c21.73,0,43.45-.02,65.18,.03,1.76,0,4.17-.97,4.23,2.49,.09,5.25-.84,7.19-4.19,7.53-.79,.08-1.59,.03-2.39,.03-42.06,0-84.11,0-126.17,0-5.56,0-8.17-3.69-6.34-8.87,.51-1.44,1.66-1.2,2.72-1.21,4.78-.02,9.57-.01,14.35-.01,17.54,0,35.08,0,52.62,0Z"/>
  <path class="cls-1" d="M89.85,172.81c1.76-6.5,3.61-12.98,5.23-19.51,.58-2.35,1.44-3.38,4.13-3.29,6.75,.23,6.76,.07,6.76,6.96v13.13q0,11.56-2.62,11.57-2.77,.01-2.77-11.73v-14.21c-1.07,.6-1.03,1.55-1.24,2.31-1.9,6.99-3.97,13.95-5.56,21.01-.69,3.08-2.59,2.52-4.6,2.64-1.99,.12-3.18-.19-3.75-2.56-1.76-7.33-3.87-14.58-5.85-21.86-.15-.55-.11-1.2-1.01-1.67-.08,.79-.2,1.48-.2,2.18-.01,7.16-.08,14.32,.04,21.48,.03,2.03-.67,2.49-2.56,2.46-1.85-.03-2.89-.18-2.85-2.51,.14-8.85,.1-17.71,.02-26.56-.02-1.85,.37-2.6,2.44-2.63,7.63-.08,7.63-.16,9.64,7.34,1.39,5.17,2.8,10.34,4.21,15.51,.18-.02,.36-.05,.55-.07Z"/>
  <path class="cls-1" d="M168.92,172.3c0-6.51,.07-13.03-.04-19.54-.03-2.1,.66-2.7,2.74-2.73,2.2-.03,2.63,.8,2.61,2.79-.09,8.46,0,16.92-.08,25.38-.01,1.17,.94,3.28-1.11,3.36-2.14,.08-4.74,1.33-6.42-1.51-3.75-6.34-7.65-12.58-11.49-18.86-.4-.66-.87-1.27-1.88-1.83,0,1.72,0,3.44,0,5.15,0,4.88-.11,9.76,.05,14.63,.07,2.2-.74,2.62-2.74,2.62-1.99,0-2.78-.44-2.75-2.62,.12-8.86,.11-17.72,0-26.57-.02-2,.67-2.39,2.56-2.54,3.05-.24,4.87,.75,6.38,3.48,3.08,5.56,6.56,10.91,9.88,16.34,.55,.89,1.16,1.74,1.74,2.61,.18-.05,.36-.1,.54-.15Z"/>
  <path class="cls-1" d="M13.05,162.96c3.55-5.34,6.55-10.38,10.31-14.9,7.97-9.57,22.76-11.95,33-5.18,.67,.44,2.42,.83,1.07,2.03-1.13,1-1.31,3.78-3.95,2.48-11.15-5.48-20.4-3.44-27.88,6.48-3.35,4.44-6.22,9.24-9.29,13.89-1.21,1.82-.54,3.88-.65,5.83-.1,1.69-.19,3.4,.02,5.07,.32,2.59-.76,3.22-3.18,3.08-1.7-.1-2.51-.62-2.15-2.25,2.29-10.57-4.43-17.82-9.51-25.63-1.16-1.79-1.28-2.69,.73-3.87,1.7-.99,2.53-1.16,3.65,.76,2.36,4.02,5.01,7.86,7.83,12.21Z"/>
  <path class="cls-1" d="M127.06,149.41c-8.89-.01-15.73,7.16-15.71,16.46,.02,9.38,6.77,16.47,15.69,16.48,9.2,0,15.43-6.6,15.44-16.4,.02-9.63-6.41-16.52-15.42-16.54Zm.04,27.62c-6.09-.02-10.43-4.77-10.36-11.35,.06-6.34,4.53-11.01,10.46-10.95,5.84,.06,10.09,4.77,10.18,11.3,.1,6.42-4.2,11.02-10.28,11Z"/>
  <path class="cls-1" d="M297.54,150.53c-3.95-.85-7.94-.18-11.9-.46-1.93-.14-2.64,.47-2.57,2.48,.14,4.37,.04,8.75,.04,13.12s.05,9.15-.03,13.72c-.02,1.56,.27,2.4,2.1,2.32,3.28-.13,6.58,.07,9.86-.09,7.87-.39,13.65-6.35,14.27-14.55,.64-8.47-3.92-14.84-11.77-16.54Zm6.43,15.97c-.23,5.74-4.06,9.66-9.56,9.8q-5.91,.14-5.91-5.62v-5.07c0-2.69,.09-5.38-.04-8.06-.07-1.73,.56-2.32,2.24-2.18,1.49,.12,3-.03,4.48,.11,5.71,.52,9.05,4.74,8.79,11.02Z"/>
  <path class="cls-1" d="M237.1,176.3c5.14,0,9.52,.13,13.9-.05,2.29-.09,2.54,.89,2.58,2.8,.05,2.09-.59,2.73-2.7,2.68-5.68-.14-11.36,.01-17.04-.09-1.25-.02-3.13,.94-3.69-.79-.52-1.63-.48-3.5,.74-5.12,2.4-3.18,4.7-6.42,7.04-9.64,2.44-3.37,4.88-6.74,7.74-10.69-4.98,0-9.39-.09-13.8,.04-1.99,.06-2.77-.36-2.78-2.57,0-2.24,.61-2.89,2.86-2.83,5.58,.16,11.16,0,16.74,.1,1.26,.02,3.18-.91,3.71,.77,.53,1.71,.56,3.67-.73,5.39-3.58,4.77-7.07,9.62-10.58,14.45-1.21,1.66-2.39,3.33-3.98,5.55Z"/>
  <path class="cls-1" d="M258.5,165.72c0-4.48,.06-8.96-.03-13.43-.04-1.68,.48-2.26,2.2-2.22,4.98,.09,9.97,.15,14.95-.02,2.45-.08,2.41,1.24,2.47,2.98,.07,1.78-.44,2.49-2.34,2.41-3.18-.14-6.38,.05-9.57-.07-1.77-.07-2.47,.39-2.41,2.31,.2,6.69-.74,5.24,5.28,5.41,.7,.02,1.4,.05,2.09,0,1.9-.17,3.13,0,3.1,2.58-.03,2.39-.92,2.93-3,2.71-1.18-.12-2.39-.02-3.59-.02-3.84,0-3.87,0-3.84,3.85,.05,4.78-.61,4.05,4.11,4.11,2.59,.03,5.19,.15,7.77-.04,2.19-.16,2.47,.89,2.39,2.66-.07,1.55,.17,2.9-2.23,2.82-5.08-.17-10.17-.12-15.25-.02-1.79,.04-2.16-.65-2.13-2.26,.09-4.58,.03-9.16,.03-13.73Z"/>
  <path class="cls-5" d="M200.3,39.9c-7.67,.04-13.61,6.01-13.59,13.63,.02,7.57,6.08,13.52,13.74,13.49,7.6-.02,13.64-6.05,13.65-13.63,.02-7.42-6.25-13.54-13.8-13.49Zm5.92,22.65c-4.24,2.98-7.18,2.7-11.01-1-.89-.86-1.17-1.87-.65-2.98,.63-1.33,1.82-1.49,3.05-1.1,1.41,.45,2.67,1.36,4.24,1.28l.48-2.57c-1.43-.39-2.92-.64-4.29-1.2-4.38-1.82-5.15-7.09-1.55-10.19,4.03-3.46,8-3.24,11.71,.69,1.48,1.58,.63,2.89-.59,4.12-.86,.68-1.66,.25-2.43-.17-.87-.48-1.85-.63-2.73-1.04-1.08-.51-2.25-.09-2.57,.69-.56,1.37,1.04,1.26,1.76,1.74,1.05,.29,2.14,.49,3.16,.87,2.42,.93,3.96,2.63,4.2,5.29,.21,2.41-.86,4.22-2.78,5.57Z"/>
  <path class="cls-5" d="M94.61,22.26c0-3.28,.05-6.57-.02-9.85-.03-1.56,.34-2.38,2.14-2.36,6.88,.07,13.75,.07,20.63,0,1.73-.02,2.24,.68,2.23,2.31-.05,6.76-.01,13.53-.03,20.29,0,.85,.21,1.93-1.1,2.07-1.24,.13-1.41-.84-1.62-1.72-.07-.29-.04-.63-.19-.87-2.13-3.32-2.83-6.72-2.45-10.82,.37-4.04-4.23-6.91-8.47-6.23-4.01,.65-7.05,5.02-5.76,8.89,.72,2.16,.62,3.6-1.01,5.19-.98,.95-1.32,2.42-1.62,3.8-.18,.84-.3,1.88-1.58,1.77-1.36-.12-1.11-1.19-1.12-2.03-.03-3.48-.01-6.96-.01-10.45Z"/>
  <path class="cls-4" d="M154.35,114.27c-4.47,0-8.94,.02-13.41-.02-.63,0-1.5,.35-1.84-.5-.27-.65,.38-1.06,.74-1.49,2.05-2.51,3.42-5.37,4.09-8.51,.35-1.65,1.2-2.02,2.69-2,5.17,.05,10.33,.03,15.5,.01,1.28,0,2.26,.11,2.61,1.72,.71,3.34,2.12,6.39,4.36,9.01,1.32,1.55,.36,1.77-1.02,1.77-4.57,0-9.14,0-13.71,0Z"/>
  <path class="cls-5" d="M199.96,168.5c0-3.48-.1-6.96,.04-10.43,.08-2-.42-2.95-2.61-2.71-1.47,.16-2.99-.08-4.47,.06-1.92,.18-2.67-.43-2.58-2.45,.08-1.8,.17-2.97,2.53-2.92,6.56,.14,13.13,.15,19.7,0,2.27-.05,2.31,1.06,2.32,2.72,.01,1.69-.1,3.02-2.33,2.63-.1-.02-.2,0-.3,0q-6.97,.11-6.97,7.21c0,5.56-.09,11.13,.05,16.68,.05,2.06-.73,2.46-2.58,2.44-1.85-.02-2.97-.17-2.85-2.51,.19-3.57,.05-7.15,.05-10.72Z"/>
  <path class="cls-5" d="M41.84,150.09c3.39,0,6.77,.09,10.16-.03,2.22-.08,2.01,1.3,2.03,2.73,.02,1.47,.1,2.9-2.07,2.61-.29-.04-.6,0-.9,0q-6.4,.05-6.4,6.33c0,5.57-.02,11.13,.01,16.7,0,1.84,.32,3.41-2.61,3.38-2.69-.03-2.78-1.21-2.75-3.23,.08-6.86-.05-13.72,.08-20.58,.04-2.13-.66-2.84-2.71-2.62-1.28,.14-2.59-.03-3.88,.04-1.85,.1-3.12,.08-3.13-2.54-.01-2.65,1.12-2.89,3.22-2.81,2.98,.12,5.97,.03,8.96,.03Z"/>
  <path class="cls-2" d="M154.66,119.36c7.28,0,14.56,.05,21.83-.03,1.86-.02,2.66,.42,2.66,2.47,0,2.04-.8,2.5-2.66,2.49-14.76-.06-29.51-.06-44.27,0-1.87,0-2.66-.46-2.66-2.5,0-2.06,.81-2.49,2.66-2.47,7.48,.08,14.96,.03,22.43,.03Z"/>
  <path class="cls-5" d="M218.98,165.85c0-4.56,.1-9.13-.04-13.68-.07-2.11,1.04-2.16,2.58-2.12,1.54,.03,2.88-.21,2.85,2.17-.12,9.12-.12,18.25,0,27.37,.03,2.48-1.45,2.01-2.9,2.09-1.59,.09-2.6-.07-2.53-2.15,.15-4.56,.05-9.12,.05-13.68Z"/>
  <path class="cls-2" d="M186.49,165.86c0,4.46-.11,8.93,.04,13.39,.08,2.36-1.16,2.4-2.95,2.48-2.04,.09-2.48-.7-2.46-2.58,.08-8.83,.1-17.66,0-26.49-.03-2.14,.69-2.65,2.72-2.66,2.13-.01,2.74,.74,2.69,2.77-.12,4.36-.04,8.73-.04,13.09Z"/>
  <path class="cls-6" d="M106.87,34.82c-.49,0-1,.06-1.48-.01-1.01-.15-2.51,.6-2.9-.71-.44-1.46,.68-2.59,1.87-3.39,2.24-1.51,5.42-.88,6.81,1.36,.95,1.53,1.26,2.86-1.33,2.76-.99-.04-1.98,0-2.97,0Z"/>
  <path class="cls-3" d="M109.55,22.07c-.1,1.8-.86,2.64-2.44,2.65-1.56,.01-2.46-.76-2.43-2.32,.03-1.48,.84-2.44,2.38-2.48,1.6-.05,2.17,1.09,2.49,2.16Z"/>
  <path class="cls-1" d="M171.82,33.27c.06-2.68-1.06-3.48-3.57-3.42-4.57,.12-9.16,.04-13.74,.04s-9.36,.08-14.04-.04c-2.49-.06-3.64,.7-3.58,3.4,.15,6.06,.12,12.13,0,18.19-.04,2.49,1.09,3.41,3.4,3.41,9.36-.01,18.73-.01,28.09,0,2.3,0,3.46-.9,3.42-3.39-.1-6.06-.13-12.13,.01-18.19Zm-10.09,11.81c-4.27,2.14-8.52,4.31-12.82,6.37-2.87,1.38-4.33,.52-4.55-2.7-.14-2.17-.02-4.36-.02-6.55s-.13-4.38,.02-6.55c.22-3.06,1.66-3.91,4.38-2.61,4.38,2.1,8.72,4.29,13.07,6.47,1.16,.58,2.32,1.17,2.27,2.8-.05,1.59-1.19,2.19-2.35,2.77Z"/>
  <path class="cls-3" d="M154.92,43.04c-1.15,.57-2.31,1.11-3.44,1.72-1.2,.64-2.13,.8-2.01-1.02,.1-1.45-.71-3.64,.4-4.17,1.42-.68,2.94,1.14,4.49,1.7,.56,.47,1.33,.87,.55,1.76Z"/>
</svg>